<svg width="335" height="228" viewBox="0 0 335 228" fill="none" xmlns="http://www.w3.org/2000/svg">
<path d="M0.0317594 95.8963C0.310664 98.802 3.35162 101.115 5.90674 103.221C12.3485 108.516 20.4817 110.865 25.9204 106.486C28.8939 104.092 30.0859 100.401 30.2659 97.0595C30.4188 94.1763 29.2447 91.5536 26.955 89.6674C22.4925 85.9894 17.7017 85.3921 14.1434 88.0732C13.1358 88.8277 11.2914 90.4219 10.2523 92.582C9.20861 94.7467 9.33007 96.8619 10.5941 98.537C12.6139 101.214 19.1097 103.643 22.1912 101.407C23.4237 100.513 24.184 99.3139 24.3909 97.9352C24.7508 95.5101 23.1853 93.7452 22.569 92.9278C21.8268 91.9398 21.0755 91.5087 19.843 91.4009C18.7498 91.3066 17.9041 91.7153 16.9505 92.5012C16.0867 93.2108 16.4916 93.9787 17.6072 93.8575C18.0976 93.8036 18.8533 93.2422 19.4471 93.1255C19.9329 93.0311 20.6482 93.4937 20.9451 93.8889C21.5974 94.7556 21.8178 96.3993 21.6513 97.5265C21.5569 98.1687 21.2015 98.7076 20.5672 99.1657C19.1502 100.194 14.2199 98.7346 12.8164 96.8709C12.5825 96.561 11.8717 95.6179 12.7579 93.7856C13.3337 92.591 14.4493 91.3156 15.8213 90.2827C19.3706 87.6151 23.5542 90.4578 25.1916 91.8051C26.7841 93.1165 27.6073 94.9308 27.4993 96.9113C27.3689 99.3723 25.8214 101.806 23.3652 103.423C17.1574 107.505 10.8685 103.706 7.67464 101.079C5.67732 99.4352 4.60669 97.5804 4.39976 95.4023C4.03089 91.6884 6.17665 87.1121 10.9045 81.3997C12.9918 78.8803 15.421 77.6363 18.12 77.6992C22.0967 77.789 26.5592 80.735 30.3648 85.7738C34.4764 91.2213 36.5412 98.3843 37.6479 104.097C38.3406 107.658 38.2237 110.303 39.8341 111.565C41.4445 112.832 43.7478 113.864 44.6699 114.897C45.5921 115.93 45.4752 116.734 44.8994 118.575C44.3236 120.412 44.7824 121.562 44.7824 123.632C44.7824 125.702 44.3236 128.231 44.553 129.493C44.7824 130.755 46.6268 132.713 48.0078 134.55C49.3888 136.386 49.2943 139.921 49.0469 142.243C48.804 144.564 48.0663 145.665 46.8427 147.497C45.6191 149.329 46.1094 150.793 47.5759 152.504C49.0424 154.215 50.0231 155.926 51.1252 157.759C52.2273 159.591 51.1252 162.766 50.2705 165.452C49.4158 168.137 47.0856 176.962 51.9214 179.948C56.7573 182.935 61.1298 185.926 62.9742 188.225C64.814 190.524 65.5068 192.59 65.0479 196.731C64.5891 200.867 65.2774 201.329 67.1217 204.087C68.9616 206.844 68.0439 208.452 66.1995 211.214C64.3552 213.976 63.4375 215.121 63.6669 217.42C63.8963 219.72 60.9049 222.248 57.6795 223.627C54.4541 225.005 50.7698 226.384 50.0816 227.992C49.3888 229.6 40.4099 232.591 36.4962 232.82C32.5826 233.049 25.673 231.899 18.9972 234.89C16.3072 236.093 11.7457 236.614 7.36874 237.072C13.0098 238.68 17.0404 238.451 20.2613 237.764C23.0009 237.18 27.9762 235.582 34.8813 237.647C38.0932 238.608 44.3236 239.255 47.315 239.026C50.3065 238.797 55.6057 237.418 57.9044 236.956C64.3507 238.334 71.0264 238.563 74.2518 238.334C77.4772 238.105 80.6981 236.956 82.0791 235.577C83.4601 234.198 82.5379 234.198 85.7633 235.348C88.9887 236.498 97.0455 236.269 99.5781 236.269C102.111 236.269 109.709 235.119 112.012 235.119C114.315 235.119 122.372 233.049 124.675 232.362C126.978 231.67 126.515 233.053 128.818 233.969C131.121 234.89 137.797 234.661 142.633 234.198C147.469 233.74 150.69 234.198 154.603 234.89C158.517 235.582 165.193 237.418 168.189 238.568C171.18 239.718 173.024 241.554 176.016 240.638C179.007 239.718 183.155 238.801 186.839 238.801C190.523 238.801 195.589 239.951 199.273 239.031C202.957 238.11 213.088 236.96 215.85 237.652C218.612 238.343 225.058 240.409 227.361 240.638C229.664 240.867 238.643 241.559 240.483 241.33C242.323 241.101 246.241 243.629 248.311 244.087C250.384 244.545 255.571 243.45 257.982 242.251C259.134 241.676 260.488 240.557 262.949 241.73C266.201 243.279 267.685 241.855 269.705 241.671C270.929 241.608 272.427 241.923 273.65 241.986C274.874 242.048 275.733 241.496 276.651 240.58C277.568 239.664 279.098 238.501 280.326 237.953C280.762 237.755 281.221 237.441 281.68 237.086C283.174 236.911 284.55 236.731 285.616 236.502C288.842 235.811 292.521 234.665 295.517 235.811C298.509 236.96 305.189 238.339 308.41 239.489C311.635 240.638 313.934 240.867 316.467 240.638C318.001 240.562 319.876 240.953 321.41 241.029C322.944 241.105 324.02 240.418 325.171 239.269C326.323 238.119 328.239 236.664 329.778 235.972C331.312 235.281 333.079 233.673 334.307 231.912C335.536 230.152 335 227.929 333.696 225.477C332.391 223.025 329.935 219.805 328.554 218.583C327.173 217.357 323.412 217.51 321.649 218.202C319.885 218.893 317.119 220.425 316.66 222.643C316.201 224.866 316.66 226.932 317.812 228.544C318.963 230.152 321.649 230.615 323.646 230.462C325.643 230.309 327.164 229.231 328.01 228.005C328.855 226.779 327.483 225.095 326.642 224.255C325.796 223.411 324.19 223.708 323.3 224.287C322.782 224.624 322.953 225.297 323.561 225.1C324.164 224.898 324.627 224.929 325.059 224.929C325.918 224.929 326.327 226.088 326.327 226.856C326.327 227.624 325.688 228.306 324.811 228.661C323.673 229.128 322.126 228.549 320.974 228.01C319.823 227.475 319.053 226.465 318.477 225.014C318.059 223.959 318.99 222.711 319.984 221.947C320.983 221.179 321.883 220.582 323.421 220.277C324.955 219.971 326.107 220.277 327.258 221.044C328.41 221.812 330.065 223.752 331.294 225.818C332.522 227.889 331.941 230.008 331.325 230.929C330.713 231.85 329.328 233.076 327.488 233.381C325.648 233.686 324.532 234.306 323.273 235.519C322.238 236.516 321.311 237.064 319.206 236.17C317.938 235.635 316.827 236.821 314.91 236.704C312.382 236.552 310.497 237.203 307.042 235.824C303.588 234.445 299.444 228.697 296.219 227.781C292.994 226.86 291.383 226.86 288.621 228.239C287.348 228.877 285.576 229.505 283.682 230.031C283.61 229.883 283.542 229.739 283.461 229.591C282.422 227.637 280.461 225.068 279.359 224.089C278.257 223.11 275.256 223.232 273.848 223.784C272.44 224.332 270.236 225.558 269.867 227.327C269.521 229.002 269.849 230.556 270.659 231.805C269.831 231.625 268.94 231.248 267.897 230.534C264.213 228.005 261.451 228.926 256.844 227.314C252.238 225.706 249.476 223.865 244.181 223.178C247.636 222.028 249.017 218.35 251.32 218.579C253.623 218.808 257.537 220.416 259.84 220.649C262.143 220.878 268.59 222.028 270.2 218.121C271.81 214.214 272.503 212.373 275.495 211.227C278.486 210.078 279.755 209.736 281.982 210.23C283.016 210.459 284.514 210.5 285.207 210.037C286.88 208.923 290.25 208.205 291.401 208.218C292.557 208.232 293.493 208.564 294.406 209.498C295.319 210.432 295.657 211.272 295.981 212.269C296.305 213.266 296.359 214.564 295.567 215.094C294.483 215.822 293.48 216.154 292.431 215.979C291.383 215.804 290.043 215.476 289.48 214.618C289.049 213.958 288.927 213.473 289.291 212.943C289.656 212.417 290.263 212.013 290.92 212.31C291.572 212.602 291.847 213.073 291.721 213.634C291.577 214.286 291.545 215.013 292.206 214.51C292.782 214.075 292.823 213.046 292.589 212.323C292.314 211.479 291.28 210.545 290.304 210.724C289.323 210.908 287.587 211.42 287.587 212.66C287.587 213.904 288.126 215.359 289.431 216.405C290.731 217.452 292.8 218.399 294.352 217.838C295.904 217.272 297.2 216.064 297.933 214.317C298.666 212.57 297.488 210.212 296.601 208.906C295.715 207.599 293.196 205.721 291.662 205.915C290.133 206.108 285.774 207.397 283.327 207.774C279.903 208.304 274.577 207.316 272.503 209.844C270.429 212.373 270.893 214.443 267.897 216.051C264.905 217.658 261.451 218.808 259.84 218.579C258.23 218.35 254.545 216.971 251.783 214.901C249.021 212.831 247.64 213.751 245.566 215.13C243.493 216.509 241.423 218.116 239.35 218.116C237.276 218.116 233.808 218.893 230.627 217.214C227.753 215.696 223.421 214.488 219.97 214.259C216.515 214.03 212.318 214.591 208.634 212.063C204.95 209.534 201.396 209.853 196.79 210.545C192.183 211.236 188.814 211.277 184.441 208.519C180.069 205.762 177.185 200.88 173.96 199.96C170.735 199.039 167.289 201.41 164.986 202.097C162.682 202.789 162.071 200.557 158.386 198.72C154.702 196.883 151.58 196.201 147.896 195.509C144.212 194.818 141.279 194.413 139.439 192.806C137.599 191.198 135.417 190.367 130.811 191.288C126.204 192.208 123.883 192.747 120.658 192.976C117.432 193.205 116.627 191.912 115.017 189.384C113.406 186.855 112.943 185.706 108.571 184.098C104.198 182.49 101.895 181.798 99.1282 180.42C96.3662 179.041 93.6041 176.971 93.7166 175.709C93.892 173.764 92.682 172.376 91.4134 171.573C90.1493 170.769 88.5344 170.54 87.9586 169.161C87.3828 167.782 88.8808 167.091 89.3396 165.941C89.7984 164.791 89.569 163.067 89.1102 160.426C88.6513 157.786 89.9154 158.356 90.6082 156.748C91.3009 155.14 91.6428 152.841 92.682 151.462C93.7166 150.084 95.3315 149.626 97.1714 151.004C99.0113 152.383 101.202 154.107 102.812 155.486C104.423 156.865 107.302 157.786 109.376 156.178C111.45 154.57 112.349 152.756 113.982 150.429C114.787 149.28 115.593 147.901 117.549 147.443C119.506 146.985 121.926 147.214 123.537 147.56C125.147 147.906 127.451 147.56 128.949 146.064C132.988 140.684 139.704 140.365 143.906 140.707C149.336 141.151 155.336 143.648 160.802 147.739C165.863 151.53 168.823 155.976 168.922 159.946C168.989 162.64 167.748 165.065 165.229 167.158C159.516 171.896 154.936 174.047 151.216 173.688C149.034 173.486 147.172 172.417 145.521 170.427C142.88 167.243 139.061 160.979 143.137 154.768C144.747 152.311 147.185 150.762 149.65 150.627C151.634 150.515 153.452 151.328 154.77 152.917C156.124 154.548 158.985 158.72 156.313 162.272C155.282 163.642 154.009 164.76 152.813 165.335C150.977 166.224 150.033 165.514 149.722 165.285C147.851 163.884 146.38 158.971 147.406 157.552C147.865 156.919 148.4 156.564 149.043 156.465C150.172 156.299 151.819 156.51 152.687 157.161C153.083 157.458 153.551 158.172 153.456 158.657C153.339 159.25 152.777 160.004 152.727 160.494C152.61 161.603 153.38 162.007 154.09 161.145C154.878 160.193 155.278 159.344 155.184 158.253C155.076 157.022 154.639 156.272 153.65 155.531C152.826 154.916 151.054 153.357 148.629 153.721C147.248 153.932 146.047 154.691 145.156 155.926C142.925 159.012 145.372 165.492 148.058 167.499C149.736 168.757 151.859 168.874 154.023 167.827C156.187 166.781 157.775 164.935 158.53 163.929C161.207 160.368 160.6 155.589 156.902 151.143C155.008 148.862 152.376 147.699 149.488 147.856C146.146 148.045 142.448 149.248 140.06 152.217C135.687 157.655 138.058 165.77 143.375 172.188C145.489 174.739 147.815 177.766 150.726 178.04C155.215 178.453 160.685 174.514 166.992 169.282C170.15 166.66 171.774 163.408 171.684 159.874C171.562 155.055 168.899 148.858 163.159 144.56C157.28 140.159 150.838 137.307 144.891 136.822C144.234 136.768 140.847 136.822 140.208 136.822C134.045 136.822 128.931 138.708 125.017 142.157C123.519 143.307 119.259 141.353 117.765 140.895C116.267 140.437 114.198 140.091 113.046 140.895C111.895 141.699 111.665 143.307 111.548 144.115C111.432 144.919 110.743 146.644 110.167 147.102C108.89 148.121 108.44 148.938 107.635 149.976C106.83 151.013 105.795 151.126 104.643 150.667C103.492 150.209 100.959 148.831 99.5781 146.989C98.1971 145.153 95.5475 143.195 93.7076 142.624C91.8677 142.049 89.9064 142.278 88.4129 144.12C86.9149 145.956 85.7633 147.569 85.0751 148.602C84.3868 149.635 84.3823 151.013 84.1529 152.396C83.9235 153.78 83.3477 155.383 81.9666 155.383C80.5856 155.383 79.0876 154.579 78.1654 153.084C77.2432 151.588 76.8969 149.635 76.555 148.256C76.2086 146.877 74.9445 146.989 76.555 144.695C78.1654 142.395 80.3562 140.9 79.7804 138.488C79.2046 136.076 79.7804 133.66 81.1614 132.165C82.5424 130.669 86.2267 129.062 87.4907 127.337C88.7593 125.613 88.6423 123.888 87.2613 122.28C85.8803 120.673 83.694 120.21 81.7372 119.869C79.7804 119.527 77.1308 119.177 75.6373 117.799C74.1393 116.42 73.6805 116.42 72.8753 114.466C72.07 112.513 73.649 111.412 73.4511 109.468C73.2036 106.998 90.995 110.236 93.2533 111.134C95.507 112.032 99.3891 109.877 100.847 107.739C102.304 105.601 104.576 103.993 105.858 103.154C107.14 102.309 110.095 101.528 112.961 103.248C115.827 104.968 118.508 107.276 119.56 108.88C120.613 110.483 121.031 112.077 120.59 114.201C120.15 116.325 119.308 117.569 118.233 118.944C117.158 120.318 115.417 121.598 113.955 121.005C111.944 120.192 110.55 119.119 109.817 117.52C109.083 115.921 108.292 113.766 108.948 112.198C109.452 110.99 110.015 110.371 111.081 110.38C112.147 110.388 113.267 110.856 113.474 112.023C113.681 113.195 113.28 114.004 112.394 114.354C111.36 114.763 110.325 115.396 111.638 115.836C112.777 116.218 114.23 115.32 115.012 114.323C115.925 113.159 116.249 110.869 115.089 109.692C113.924 108.516 111.598 106.603 109.889 107.761C108.179 108.92 106.668 111.022 106.438 113.784C106.209 116.546 106.821 120.273 109.047 121.881C111.274 123.488 114.144 124.149 117.239 123.529C120.334 122.909 122.489 119.096 123.46 116.658C124.437 114.219 124.684 109.01 122.988 107.083C121.297 105.157 116.843 101.726 113.447 99.8977C110.05 98.0699 106.965 97.302 104.504 98.9906C102.043 100.675 100.662 101.793 98.8988 103.324C97.1354 104.856 95.4395 106.989 93.2533 106.419C91.067 105.848 89.0112 104.95 86.9239 105.386C84.1619 105.96 77.3782 103.805 73.1092 104.178C72.5919 104.222 71.7866 104.007 71.9576 103.086C72.0655 102.52 72.5919 101.303 73.2216 100.387C73.8559 99.4666 74.3732 98.6044 75.1785 97.8589C75.9837 97.1134 77.828 96.9382 79.497 96.9382C81.6382 96.9382 83.3477 99.3813 84.8816 99.4576C86.4156 99.534 87.4907 98.8469 88.6423 97.6972C89.7939 96.5475 91.7103 95.0925 93.2488 94.4009C94.7827 93.7093 96.5506 92.1015 97.7787 90.3411C99.0068 88.5807 98.4715 86.3577 97.1669 83.9056C95.8624 81.4536 93.4062 78.2336 92.0252 77.0121C90.6442 75.786 86.8834 75.9387 85.12 76.6303C83.3567 77.3219 80.5901 78.8533 80.1313 81.0719C79.6724 83.2949 80.1313 85.3607 81.2829 86.9729C82.4345 88.5807 85.12 89.0432 87.1174 88.8905C89.1147 88.7378 90.6352 87.66 91.4809 86.434C92.3266 85.208 90.9546 83.5239 90.1133 82.6841C89.2676 81.8398 87.6122 82.0643 86.771 82.7155C86.0467 83.2769 85.3945 84.3143 85.6644 85.1361C85.9748 86.0837 86.4381 85.3427 86.7395 84.6017C86.9959 83.964 87.5852 83.6811 88.4264 83.8338C89.2721 83.9865 89.605 84.7948 89.605 85.5628C89.605 86.3307 89.1552 86.7304 88.2825 87.0897C87.1444 87.5522 85.5969 86.9729 84.4453 86.4385C83.2937 85.9041 82.5244 84.8936 81.9486 83.4431C81.5303 82.3877 82.4615 81.1392 83.4556 80.3758C84.4543 79.6078 85.354 79.0105 86.8924 78.7051C88.4264 78.3998 89.578 78.7051 90.7296 79.4731C91.8812 80.241 93.5367 82.1811 94.7647 84.2469C95.9928 86.3172 95.4125 88.4369 94.7962 89.3576C94.1844 90.2782 92.7989 91.5042 90.959 91.8096C89.1192 92.115 87.2973 92.8605 86.6495 94.4817C85.8443 96.4936 83.5141 93.9428 81.2379 93.2197C79.7984 92.7617 77.1488 92.5865 76.1726 94.0236C75.192 95.4607 73.64 96.0939 72.3174 96.7227C70.9949 97.3559 68.5747 97.5849 67.9989 99.7091C67.4231 101.833 66.7349 103.733 66.9058 105.053C66.9058 107.263 67.828 113.097 68.6332 115.05C69.4384 117.004 69.6679 117.578 71.6247 119.415C73.5815 121.252 75.5383 121.715 75.9972 123.897C76.456 126.08 76.1141 127.346 73.5815 128.837C71.0489 130.328 68.5163 131.02 68.6332 133.319C68.7502 135.618 69.326 137.572 67.828 139.642C66.33 141.713 65.5248 143.091 65.4123 145.503C62.5333 142.054 59.6543 140.329 59.0785 137.343C58.5027 134.356 58.3857 125.734 58.3857 122.747C58.3857 119.761 57.4635 118.611 55.6237 114.933C53.7838 111.255 54.4721 104.591 55.6237 100.913C56.7753 97.2346 51.4806 91.9488 48.7185 88.7288C45.9565 85.5089 44.5755 82.5224 45.4932 80.2231C46.4153 77.9237 55.3942 80.9147 58.3857 79.994C61.3772 79.0734 66.6764 74.2457 66.6764 74.2457C71.0489 71.0257 73.1227 71.7173 77.2657 71.0257C81.4088 70.3341 82.1016 68.7263 83.712 65.5109C85.3225 62.2954 92.0117 62.8522 96.6046 62.2909C100.365 61.8328 101.283 61.1143 102.628 58.038C103.163 56.812 104.891 56.4662 105.862 57.1757C111.782 61.505 115.764 65.4165 128.256 66.0408C128.571 66.0543 128.881 66.0632 129.182 66.0632C134.288 66.0632 137.864 65.4345 139.317 62.3582C141.382 57.9931 141.148 52.7477 139.943 49.5457C138.413 45.4859 136.236 42.6521 132.691 40.51C130.649 39.275 127.878 39.1537 125.782 40.3214C120.788 43.1147 115.696 48.387 116.762 52.2672C117.63 55.4243 122.678 57.9527 126.96 57.3688C129.286 57.05 131.621 54.7462 132.597 53.2731C133.487 51.9259 133.339 51.1759 133.029 50.0352C132.417 47.8077 130.285 46.8152 127.325 47.2149C125.885 47.4125 124.018 47.6595 123.361 48.6565C122.871 49.3975 122.727 50.2597 122.952 51.0816C123.397 52.6983 125.381 53.7357 127.473 53.4573C128.508 53.3136 129.034 52.3031 129.286 51.8405C129.502 51.4364 129.646 51.0187 129.551 50.5965C129.47 50.2373 129.137 49.887 128.89 49.9499C128.53 50.0397 128.557 50.2867 128.535 50.7672C128.512 51.1489 128.152 52.119 127.298 52.2537C126.218 52.4244 124.999 51.5127 124.76 51.1669C124.482 50.7627 124.473 50.1744 124.666 49.8151C125.255 48.7283 126.218 48.6026 127.14 48.4813C129.101 48.2119 130.532 48.9933 130.982 50.3451C131.139 50.8211 130.761 51.8854 130.253 52.6489C129.385 53.9602 128.134 55.55 126.875 55.8419C123.357 56.6638 120.419 55.3614 119.484 51.4453C118.692 48.1176 121.895 45.5982 126.74 43.2809C128.341 42.5129 130.316 43.1596 131.958 43.8198C134.54 44.8527 136.672 46.1955 137.837 50.1115C138.674 52.9139 138.238 57.3509 136.25 60.2206C133.964 63.5304 132.327 63.5169 128.548 63.3238C116.861 62.74 115.444 60.27 110.127 54.3599C108.786 52.869 107.36 52.1324 106.366 52.4423C105.372 52.7522 102.444 52.8151 101.265 52.8779C100.082 52.9408 99.2767 54.086 98.8988 54.4947C97.6258 55.8689 96.861 55.1324 95.7139 56.3C95.3495 56.6683 94.5713 56.6862 94.108 55.8734C93.8246 55.3749 93.8651 55.1458 93.7526 54.0366C93.6401 52.9273 93.4782 51.9348 93.6086 50.8436C93.7391 49.7523 95.0346 48.4319 96.3077 47.3541C97.9406 45.9754 100.829 46.7299 102.048 45.8003C103.267 44.8662 103.64 43.6491 103.775 42.0279C103.91 40.4067 104.432 38.0579 105.156 36.5445C105.88 35.0266 106.186 32.6599 105.979 30.5222C105.777 28.3845 103.928 27.0373 101.341 26.0088C98.7594 24.9804 94.8007 24.1092 92.9519 24.0643C91.103 24.0194 88.3319 26.5657 87.4323 28.2318C86.5326 29.898 85.4169 32.8485 86.5056 34.8424C87.5942 36.8364 89.2856 38.1163 91.202 38.6013C93.1228 39.0864 95.471 37.7032 96.8925 36.2975C98.314 34.8918 98.7819 33.091 98.6334 31.609C98.485 30.127 96.3482 29.7273 95.1606 29.633C93.973 29.5342 92.8529 30.7737 92.6325 31.8156C92.4435 32.7093 92.6145 33.9263 93.3522 34.3754C94.2024 34.8963 94.0765 34.0341 93.8246 33.2706C93.6086 32.6194 93.874 32.0222 94.6163 31.5955C95.3585 31.1689 96.1368 31.5686 96.6316 32.1524C97.1264 32.7362 97.0455 33.3335 96.6091 34.1688C96.0423 35.2556 94.4858 35.817 93.2578 36.1493C92.0342 36.4816 90.7926 36.2122 89.4161 35.4757C88.4129 34.9412 88.314 33.3874 88.5794 32.1614C88.8448 30.9309 89.1462 29.8935 90.1178 28.6674C91.0895 27.4414 92.1691 26.934 93.5412 26.7768C94.9177 26.6196 97.4368 27.0283 99.713 27.8142C101.989 28.6001 102.92 30.594 103.046 31.6898C103.172 32.7856 102.911 34.6134 101.706 36.037C100.5 37.4606 99.5916 39.2031 100.149 40.8603C100.838 42.9126 97.4098 42.4725 95.2011 43.3886C93.8066 43.968 91.6743 45.5443 91.8587 47.2733C92.0432 49.0023 91.2649 50.4843 90.6666 51.8226C90.0639 53.1609 87.8956 53.7671 88.8403 55.7566C89.3576 56.8479 90.4597 57.6742 89.9334 58.4467C89.4251 59.1922 88.5524 59.291 86.2492 59.8658C83.946 60.4406 81.6427 60.5574 79.4565 62.0484C77.2702 63.5438 74.1618 66.0722 72.8932 67.4509C71.6292 68.8296 68.9796 69.2877 66.9058 69.1754C64.832 69.0632 62.4163 69.9793 60.8059 70.7832C59.1954 71.5871 59.1954 72.0496 58.7321 70.8999C58.2733 69.7503 58.7321 68.8296 59.3079 66.8761C59.8837 64.9225 62.7627 63.7729 62.2994 62.0484C61.8405 60.3239 62.1824 59.52 63.1046 57.7955C64.0268 56.071 64.4856 54.9213 64.4856 52.622C64.4856 50.3226 64.6026 48.7149 63.2171 47.4484C61.836 46.1865 62.4118 45.8407 63.2171 45.0368C64.0223 44.2329 132.066 45.0817 131.949 43.8198C131.832 42.5578 65.5203 39.2929 64.9445 37.1059C64.3687 34.9233 66.213 33.5446 66.0961 32.5072C65.9791 31.4743 66.3255 29.7498 67.3646 28.142C68.3993 26.5343 68.3993 26.0717 67.711 24.922C67.0183 23.7724 66.7888 22.7395 67.0183 21.473C67.2477 20.2066 66.0961 19.1737 64.8905 17.2785C62.8977 14.1528 63.1001 11.0361 64.2202 8.46735C65.5878 5.32371 69.173 3.19053 72.007 2.70102C75.6103 2.08128 79.0516 2.70552 81.2109 4.37164C82.5829 5.427 83.3522 6.84613 83.4961 8.57962C83.9325 13.8205 83.3881 17.7815 80.1762 18.765C76.393 19.9192 73.8289 18.0824 72.7808 14.7052C72.4074 13.4927 73.1272 11.6469 73.8109 10.2637C74.2068 9.45535 74.9175 8.60657 75.4034 8.50777C76.7709 8.21586 78.1474 9.03769 78.8897 10.8296C79.2406 11.6694 79.6139 12.5451 78.9842 13.5825C78.7772 13.9238 78.2734 14.2112 77.7921 14.1753C77.3827 14.1439 76.0017 13.569 75.6103 12.572C75.2999 11.7816 75.9432 10.9957 76.2581 10.7891C76.654 10.5287 76.8744 10.4299 76.7754 10.0796C76.7079 9.83708 76.2446 9.72929 75.8982 9.84157C75.4978 9.9718 75.21 10.2996 74.976 10.6814C74.7061 11.1215 74.1123 12.0691 74.5082 13.0121C75.3134 14.9163 77.1758 16.0794 78.7682 15.6528C79.578 15.4372 80.2347 14.8849 80.6216 14.1034C81.1389 13.0526 80.4237 11.3505 79.8748 10.0392C78.7412 7.34013 76.8429 6.03328 74.6521 6.62159C73.532 6.92248 72.8213 7.16948 72.124 8.59309C71.3593 10.1469 70.563 13.2636 71.4492 15.3878C73.0822 19.2949 77.7336 22.3038 80.842 21.473C84.6612 20.4491 86.6 13.5286 86.4921 7.91946C86.4471 5.57071 84.9671 3.28933 82.9023 2.17559C79.326 0.244498 75.8397 -0.18663 71.6382 0.536407C68.3228 1.10675 63.1496 3.26688 61.0848 7.42995C59.6003 10.4209 58.7951 13.8385 60.7519 18.3249C61.6156 19.6452 61.6156 21.9446 61.6156 23.5523C61.6156 25.1601 62.4208 26.1975 62.5378 27.3471C62.6548 28.4968 62.079 29.1839 61.0398 30.6794C60.0052 32.1748 59.3124 33.7826 59.6588 35.1613C60.0052 36.54 60.581 37.8064 60.464 38.7226C60.3471 39.6432 59.6588 40.1013 58.1608 41.8258C56.6628 43.5503 56.5504 44.2374 56.3209 45.6206C56.0915 46.9993 56.5504 48.7238 56.8967 49.8735C57.2431 51.0232 57.2431 51.8271 56.0915 52.7477C54.9399 53.6683 54.3641 55.047 54.4811 56.7715C54.598 58.4961 54.4811 58.8419 53.4464 60.2206C52.4118 61.5993 51.683 61.7924 50.4909 65.201C49.7217 61.0649 50.6439 55.0875 51.1027 53.7088C51.5616 52.33 51.7145 51.2567 51.2557 49.5726C50.7968 47.8885 49.8747 45.8946 49.8747 43.5952C49.8747 41.2959 50.7968 40.3752 50.9498 38.9965C51.1027 37.6178 49.8746 35.6239 48.6466 33.6344C47.4185 31.6404 48.0348 30.109 49.5778 28.8022C50.7519 27.8097 51.1612 26.6421 51.2872 25.0208C51.4131 23.3996 51.9214 21.0509 52.6367 19.5285C53.352 18.006 53.6444 15.6393 53.4284 13.5017C53.2125 11.364 51.3546 10.0257 48.768 9.01075C46.1814 7.9958 42.2183 7.14702 40.3694 7.11109C38.5205 7.07517 35.763 9.63498 34.8723 11.3056C33.9816 12.9762 32.8795 15.9357 33.9771 17.9207C35.0747 19.9057 36.7751 21.1811 38.696 21.6527C40.6168 22.1287 42.9605 20.732 44.373 19.3174C45.7901 17.9072 46.2444 16.0974 46.0869 14.6199C45.9295 13.1424 43.7927 12.7517 42.6006 12.6619C41.4086 12.572 40.2974 13.816 40.0815 14.8579C39.8971 15.7516 40.077 16.9686 40.8148 17.4177C41.6695 17.9342 41.539 17.0719 41.2826 16.313C41.0622 15.6618 41.3231 15.0645 42.0653 14.6334C42.8076 14.2022 43.5858 14.5974 44.0851 15.1813C44.5845 15.7651 44.5035 16.3579 44.0761 17.1977C43.5183 18.289 41.9619 18.8548 40.7383 19.1961C39.5147 19.5374 38.2731 19.268 36.8921 18.5449C35.8845 18.015 35.781 16.4657 36.0374 15.2351C36.2938 14.0046 36.5907 12.9627 37.5579 11.7322C38.525 10.5017 39.6002 9.98977 40.9722 9.8236C42.3442 9.65744 44.8679 10.0571 47.1486 10.8296C49.4293 11.602 50.3695 13.5915 50.5044 14.6873C50.6394 15.783 50.3875 17.6108 49.1864 19.0434C47.9853 20.4715 47.6614 22.2859 47.387 24.0104C46.9552 26.7319 46.033 28.7258 44.6519 29.9518C43.2709 31.1779 44.1931 31.9458 44.6519 33.4772C45.1108 35.0086 46.3389 37.1553 45.88 38.992C45.4212 40.8288 44.0402 42.6701 45.2682 44.6641C46.4963 46.658 45.7271 49.7208 45.2682 51.2522C44.8094 52.7836 44.9623 54.4722 45.5741 56.4617C46.1859 58.4556 46.3434 59.6817 45.4212 61.5184C44.499 63.3552 42.965 66.2698 42.965 67.8012C42.965 69.3326 41.431 71.1739 39.7396 72.5526C38.0527 73.9313 37.1305 76.078 37.7423 78.53C38.3541 80.982 37.5894 82.3607 38.0482 84.1975C38.5071 86.0343 39.7351 88.6435 41.2736 90.1749C42.8076 91.7063 44.9578 94.0057 45.1108 95.9996C45.2637 97.9936 44.7284 100.904 44.2291 103.203C41.1207 97.9172 37.9807 89.2902 33.5588 83.4296C29.2402 77.7037 23.0279 75.063 18.1965 74.9552C14.6562 74.8744 11.3994 76.5046 8.78126 79.6617C3.54056 85.9445 -0.395594 91.4189 0.0317594 95.8963ZM281.838 230.48C280.915 230.691 279.998 230.857 279.107 230.987C279.165 230.116 278.365 229.137 277.82 228.594C277.146 227.92 275.868 228.154 275.153 228.621C274.739 228.89 274.878 229.429 275.36 229.267C275.841 229.106 276.21 229.128 276.552 229.128C277.236 229.128 277.564 230.053 277.564 230.664C277.564 230.844 277.51 231.014 277.429 231.176C277.321 231.185 277.204 231.203 277.101 231.207C275.769 231.293 274.68 231.553 273.655 231.737C273.533 231.688 273.407 231.639 273.299 231.585C272.382 231.158 271.77 230.354 271.307 229.195C270.969 228.351 271.716 227.359 272.512 226.748C273.308 226.137 274.028 225.657 275.252 225.414C276.475 225.172 277.393 225.414 278.311 226.025C279.228 226.636 280.551 228.185 281.527 229.833C281.658 230.049 281.757 230.264 281.838 230.48ZM271.846 238.546C272.692 238.519 275.823 237.858 276.331 237.755C274.865 238.855 273.398 239.161 271.846 238.546ZM226.907 233.969C230.591 233.969 232.894 233.278 235.656 233.049C238.418 232.82 238.648 233.969 241.414 234.885C244.176 235.806 245.787 235.577 249.012 235.343C252.238 235.114 259.143 233.965 262.827 235.343C265.243 236.246 266.966 237.836 268.972 238.505C268.81 238.519 268.639 238.523 268.464 238.514C266.448 238.393 264.563 237.715 261.9 238.258C259.588 238.73 258.266 239.372 255.139 238.537C252.472 237.822 252.472 240.629 249.246 240.167C246.021 239.709 243.952 239.246 240.956 237.867C237.964 236.489 237.271 236.718 234.28 237.176C231.288 237.634 226.911 236.026 225.072 234.876C223.227 233.74 223.227 233.969 226.907 233.969Z" fill="#040000"/>
<path d="M218.468 219.41C209.871 218.049 201.585 214.658 197.901 214.887C194.217 215.116 187.154 216.037 183.087 215.346C179.912 214.807 177.253 212.893 175.872 212.202C174.491 211.51 168.503 211.129 162.673 210.284C166.052 211.51 177.41 215.112 180.172 216.033C182.934 216.953 190.186 217.699 195.368 218.561C199.831 219.302 202.795 219.711 205.328 219.482C207.856 219.257 210.618 218.911 218.468 219.41Z" fill="#3D3939"/>
<path d="M176.871 216.5C175.872 215.732 174.491 214.739 173.186 214.429C171.882 214.124 168.274 213.356 167.122 213.203C165.971 213.051 162.669 211.901 161.828 211.367C160.982 210.832 158.373 209.449 157.608 208.609C156.839 207.765 154.54 206.081 153.465 205.47C152.39 204.859 150.01 203.323 148.323 203.4C146.636 203.476 145.255 203.705 143.951 203.323C142.646 202.942 140.19 202.174 138.58 202.713C136.969 203.247 135.588 203.481 134.513 202.865C133.438 202.255 131.598 201.41 130.37 200.566C129.142 199.722 128.296 199.493 127.145 199.722C125.993 199.951 122.772 198.572 121.85 197.804C120.928 197.036 119.164 196.273 118.395 196.12C117.626 195.967 116.555 195.586 115.557 196.044C116.708 197.117 118.089 198.114 119.241 199.106C120.392 200.103 121.004 200.485 122.079 200.409C123.155 200.332 124.23 200.79 125.147 201.864C126.07 202.937 127.298 203.013 128.215 202.861C129.137 202.708 130.442 203.013 130.748 203.705C131.054 204.397 129.979 204.702 130.366 205.699C130.748 206.696 132.286 207.617 133.128 207.078C133.973 206.543 135.354 205.623 135.966 205.47C136.578 205.317 137.347 205.699 138.116 206.238C138.886 206.772 140.802 206.849 141.571 206.391C142.34 205.933 143.411 205.47 144.873 205.546C146.331 205.623 147.1 206.62 147.865 206.004C148.863 207.23 149.628 207.922 150.703 207.922C151.778 207.922 153.006 207.922 153.847 208.766C154.693 209.611 156.61 210.989 157.073 211.986C157.532 212.983 158.994 213.67 160.375 213.365C161.756 213.06 163.425 213.459 164.347 214.151C165.269 214.843 167.302 214.829 168.377 214.753C169.453 214.676 171.315 214.869 172.894 215.184C174.055 215.413 175.413 215.965 176.871 216.5Z" fill="#3D3939"/>
<path d="M96.2447 185.697C98.359 186.68 98.7774 187.075 100.275 189.146C101.773 191.216 101.773 191.216 102.691 192.707C103.613 194.202 104.531 194.315 104.301 195.352C104.072 196.385 103.843 198.338 104.301 199.03C104.76 199.722 105.566 200.296 106.141 200.755C106.717 201.213 106.834 202.133 106.947 203.054C105.912 202.25 104.531 201.329 103.492 201.1C102.457 200.871 101.189 199.838 101.305 199.03C101.422 198.226 101.881 196.847 101.998 196.385C102.115 195.922 102.691 195.927 101.305 195.123C99.9245 194.319 98.1971 193.398 98.1971 192.136C98.1971 190.87 97.8507 189.262 97.1624 188.342C96.4697 187.421 95.6644 187.08 94.7467 186.271C93.8291 185.467 94.5173 184.893 96.2447 185.697Z" fill="#3D3939"/>
<path d="M106.951 205.466C107.981 206.26 108.449 206.386 108.908 207.994C109.367 209.602 109.367 211.214 110.406 211.326C111.441 211.443 111.787 211.326 112.709 212.593C113.631 213.855 115.242 215.238 116.969 215.696C118.697 216.154 123.415 216.5 125.143 216.042C126.87 215.584 131.013 215.238 132.858 214.663C134.698 214.088 136.196 212.938 138.616 213.167C141.036 213.396 145.521 213.742 147.019 213.625C148.517 213.509 149.898 213.625 151.049 214.887C152.201 216.154 153.353 218.565 154.504 219.253C155.656 219.94 156.807 220.748 158.305 221.664C156.002 222.01 154.045 221.781 152.894 220.973C151.742 220.169 150.244 219.136 149.785 217.986C149.326 216.836 148.521 215.575 147.136 215.916C145.755 216.262 144.257 215.341 142.529 215.224C140.802 215.107 138.962 215.916 137.347 216.486C135.737 217.061 134.468 217.061 132.741 217.061C131.013 217.061 129.286 217.982 127.446 218.898C125.606 219.818 123.879 219.473 122.264 218.669C120.653 217.865 118.004 217.519 116.623 217.636C115.242 217.753 113.055 216.715 111.904 215.682C110.752 214.649 109.142 213.5 108.912 212.808C108.683 212.117 106.839 211.313 106.38 210.397C105.921 209.476 106.726 208.789 106.726 207.985C106.726 207.181 106.267 206.489 105.921 206.031C105.575 205.573 105.458 204.316 106.951 205.466Z" fill="#3D3939"/>
<path d="M245.211 218.911C243.79 219.369 241.95 220.173 240.951 220.636C239.952 221.094 237.96 221.633 236.808 221.404C235.656 221.175 234.122 220.869 232.971 220.946C231.819 221.022 231.743 221.251 230.973 221.327C229.745 220.407 229.516 220.025 227.906 219.567C226.295 219.109 225.067 218.723 223.992 218.875C222.917 219.028 221.842 219.486 220.537 219.949C219.233 220.407 217.235 220.178 216.165 219.872C215.089 219.567 212.174 219.414 210.717 219.796C209.259 220.178 208.337 220.946 207.492 221.022C206.646 221.098 204.424 221.404 203.654 221.943C205.188 222.172 207.033 222.172 208.027 222.477C209.026 222.782 211.788 222.859 212.939 222.401C214.091 221.943 215.778 221.327 216.853 221.327C217.928 221.327 220.537 221.251 221.689 221.633C222.84 222.014 224.68 223.011 225.755 222.63C226.83 222.248 228.981 222.324 229.745 222.477C230.515 222.63 230.668 223.398 231.432 223.703C232.202 224.008 234.77 223.205 235.922 222.859C236.875 222.571 238.459 222.791 239.453 222.666C240.375 222.549 241.14 222.244 241.909 221.709C242.678 221.175 244.023 219.832 245.211 218.911Z" fill="#3D3939"/>
<path d="M166.241 225.005C168.189 225.23 171.423 225.464 173.609 226.038C175.795 226.613 177.982 226.496 178.904 226.384C179.826 226.267 181.207 227.534 182.818 227.763C184.428 227.992 186.961 228.221 188.805 228.221C185.697 229.371 184.774 230.291 183.623 230.866C182.471 231.441 179.363 231.212 177.982 230.52C176.601 229.829 174.756 228.109 173.033 228.221C171.306 228.338 167.622 228.796 166.47 228.567C165.319 228.338 164.054 226.842 163.015 226.038C161.981 225.234 163.245 224.66 166.241 225.005Z" fill="#3D3939"/>
<path d="M190.415 229.716C191.603 229.164 192.255 228.338 194.1 228.567C195.94 228.796 198.589 228.684 200.2 228.221C201.81 227.763 204.806 228.104 206.299 228.567C207.797 229.025 210.213 230.062 211.824 230.404C213.434 230.749 213.092 232.24 211.365 231.67C209.637 231.1 206.646 230.978 204.343 231.095C202.039 231.212 201.234 231.212 199.736 230.749C198.238 230.291 196.169 230.404 195.017 230.633C193.866 230.862 192.602 231.324 190.874 231.436C189.147 231.553 188.688 230.52 190.415 229.716Z" fill="#3D3939"/>
<path d="M76.4425 159.838C77.8281 159.838 78.5163 159.838 80.1268 161.562C81.7372 163.287 81.9666 164.782 83.2352 165.699C84.5038 166.619 87.3783 168.456 84.8456 168.344C82.313 168.227 79.6634 167.652 79.2046 166.39C78.7457 165.124 78.5118 163.058 77.7066 162.595C76.9014 162.137 75.2909 160.871 74.9446 160.184C74.5982 159.492 73.6805 158.347 73.7929 156.964C73.9099 155.585 74.0224 154.319 73.4466 152.828C74.7106 153.977 75.4034 153.748 75.2864 155.473C75.1695 157.197 75.1695 157.543 75.4034 158.347C75.6373 159.151 75.8712 159.838 76.4425 159.838Z" fill="#3D3939"/>
<path d="M52.7312 119.846C52.9606 121.683 53.19 123.753 54.3416 124.903C55.4932 126.053 56.069 126.857 56.1815 128.352C56.2985 129.848 56.6403 130.535 56.1815 131.913C55.7227 133.292 56.2985 135.017 56.4109 135.708C56.5234 136.4 57.9089 136.97 57.3331 138.008C56.7573 139.04 55.4932 139.386 54.9174 138.353C54.3416 137.32 54.571 136.858 54.688 135.596C54.805 134.33 54.9174 133.297 53.9952 132.035C53.0731 130.773 54.2247 130.31 54.2247 129.39C54.2247 128.469 53.19 128.128 51.9215 127.319C50.6574 126.515 51.4626 125.711 51.5751 124.333C51.692 122.95 52.4973 121.454 52.7312 119.846Z" fill="#3D3939"/>
<path d="M59.4069 141.798C60.1806 142.418 62.0565 143.868 62.5153 145.359C62.9742 146.855 64.1258 147.542 64.8185 149.037C65.5113 150.533 66.8923 152.257 67.0048 154.094C67.1217 155.931 66.6584 158.001 67.3512 159.497C68.0439 160.992 68.7322 163.633 70.0008 164.324C71.2693 165.016 72.9922 165.703 74.3733 166.395C75.7543 167.086 76.3301 169.844 76.9059 171.68C77.4817 173.517 77.8281 173.405 78.8627 174.667C79.8974 175.929 80.2437 176.966 80.7026 178.803C81.1614 180.64 81.7372 181.906 81.9667 183.514C82.1961 185.122 81.9666 185.468 83.3477 187.075C84.7287 188.683 85.0751 189.487 85.0751 190.87C85.0751 192.249 85.6509 193.627 85.8803 194.894C86.1097 196.156 86.4561 197.076 85.9973 198.226C85.5384 199.376 85.0751 199.488 84.8457 197.997C84.6162 196.502 83.811 194.202 83.4646 193.057C83.1182 191.907 82.43 191.907 80.5856 190.529C78.7458 189.15 77.936 189.15 78.053 187.309C78.1699 185.472 78.5118 183.747 77.7066 182.598C76.9014 181.448 75.7498 180.298 75.8667 179.037C75.9837 177.77 76.5595 176.279 76.5595 175.817C76.5595 175.354 75.9837 174.209 75.1785 173.288C74.3733 172.368 74.3733 172.026 74.3733 170.76C74.3733 169.498 72.2995 169.727 71.0354 167.886C69.7668 166.049 69.1955 165.128 68.2734 164.437C67.3512 163.745 66.4335 163.862 65.048 162.137C63.6669 160.413 62.1689 158.001 62.2859 155.585C62.4029 153.173 62.1689 151.449 61.8271 149.953C61.4807 148.458 61.2513 147.542 60.9049 146.504C60.5585 145.471 59.7533 143.747 58.4892 142.597C57.2206 141.452 58.2553 140.877 59.4069 141.798Z" fill="#3D3939"/>
<path d="M94.5173 201.213C93.7121 199.605 97.8552 203.97 98.548 206.153C99.2407 208.335 100.275 209.714 100.964 210.98C101.656 212.242 102.803 213.855 103.843 215.004C104.877 216.154 104.765 216.154 104.418 217.533C104.072 218.911 104.765 220.519 105.916 221.094C107.068 221.669 109.025 223.393 111.099 224.543C109.025 224.197 107.068 223.281 104.999 223.281C102.929 223.281 101.198 221.785 100.28 220.982C99.3577 220.178 97.5178 220.29 97.5178 219.028C97.5178 217.766 98.8988 217.191 98.7819 215.808C98.6649 214.429 98.2061 213.28 97.0545 212.013C95.9029 210.751 96.1323 209.714 96.1323 208.335C96.1323 206.957 95.7859 206.84 94.8682 205.578C93.9415 204.316 95.0931 202.362 94.5173 201.213Z" fill="#3D3939"/>
<path d="M83.811 202.479C85.192 204.204 86.8025 206.386 86.573 208.227C86.3436 210.064 86.3436 210.985 87.0319 212.022C87.7247 213.055 87.1488 214.551 86.4561 215.471C85.1875 213.864 83.8065 213.634 83.5771 211.335C83.3477 209.036 82.4255 208.115 82.5424 206.395C82.6594 204.675 83.928 203.629 83.811 202.479Z" fill="#3D3939"/>
<path d="M83.0058 213.971C84.6162 215.925 85.8848 216.042 86.4606 217.649C87.0364 219.257 86.69 219.374 87.6122 221.556C88.5344 223.739 89.2227 224.202 89.569 225.118C89.9154 226.038 89.569 226.842 88.3005 228.567C87.0364 230.291 85.5384 230.404 85.0751 231.441C84.6162 232.474 83.6941 232.82 83.811 231.212C83.928 229.604 83.3522 227.88 84.0404 226.155C84.7332 224.431 85.192 222.594 85.192 221.444C85.192 220.294 85.6509 218.916 84.6162 217.883C83.5816 216.845 83.811 215.467 83.0058 213.971Z" fill="#3D3939"/>
<path d="M73.6805 191.674C74.4857 193.511 75.0615 194.548 75.1785 195.698C75.2954 196.847 75.2954 197.422 74.8321 199.722C74.3732 202.021 72.9922 202.367 72.8752 200.755C72.7583 199.147 73.2216 197.997 73.3341 196.618C73.4511 195.24 74.1438 192.366 73.6805 191.674Z" fill="#3D3939"/>
<path d="M75.6373 205.582C76.2131 207.307 76.7889 207.882 76.3301 209.606C75.8712 211.331 76.2131 212.135 77.0228 213.859C77.8326 215.584 76.609 216.334 75.183 217.079C72.5334 218.458 71.8451 216.504 71.6157 214.78C71.3863 213.055 71.6157 212.48 72.6503 211.56C73.685 210.639 73.685 210.064 73.8019 208.915C73.9099 207.765 75.1785 207.536 75.6373 205.582Z" fill="#3D3939"/>
</svg>
