<svg width="1311" height="95" viewBox="0 0 1311 95" fill="none" xmlns="http://www.w3.org/2000/svg">
<path d="M1310.22 34.2377C1303.67 31.53 1308.35 27.8396 1305.66 24.7869C1304.6 22.3719 1303.57 19.9568 1302.51 17.5418C1300.34 17.3641 1299.28 17.9182 1298.44 18.6291C1295.06 22.5705 1297.03 27.0137 1292.15 30.8505C1290.03 30.035 1287.71 29.2196 1289.49 27.7664C1293.04 23.25 1292.13 18.8278 1287.98 14.4682C1278.34 19.225 1278.44 25.3932 1274.47 31.1432C1270.28 25.9786 1267.91 20.8037 1267.91 15.4405C1261.95 15.3778 1266.36 17.7823 1263.82 18.535V29.1882C1261.33 27.4841 1260.32 26.7941 1259.31 26.1041C1257.34 26.1041 1256.97 28.1741 1253.96 26.8464C1253.27 24.1909 1244.76 21.4727 1254.99 18.535C1246.81 20.5109 1244.07 18.5246 1240.82 16.0782C1236.13 12.5446 1230.51 9.1991 1219.88 8.42547C1224.22 10.5896 1228.78 12.5446 1232.46 14.7609C1236.72 17.3432 1237.86 19.9255 1227.97 20.5841C1223.88 20.8559 1224.07 21.3263 1226.64 22.2463C1230.24 23.5323 1227.16 24.6405 1226.32 25.8218C1220.23 28.9373 1224.39 24.2955 1221.83 24.7555C1216.75 22.6541 1217.05 19.1832 1211.33 17.2386V17.2282C1212.81 15.9632 1210.22 15.2837 1209.08 14.395C1202.33 14.7923 1207.5 17.4582 1204.64 18.5977C1203.49 20.2704 1205.46 22.2464 1201.34 24.7137C1198.5 19.1832 1193.8 14.9491 1187.53 10.6628C1182.8 13.13 1178.83 15.2 1174.88 17.2596C1173.31 17.2909 1171.73 17.2177 1170.25 17.5418C1166.7 21.6923 1168.89 26.6582 1160.43 30.725C1158.24 24.3373 1161.96 18.075 1151.39 11.8859C1152.94 16.1932 1150.03 19.3609 1150.03 22.6228C1150.03 24.8496 1146.97 25.1423 1143 25.2155C1141.7 25.9264 1140.96 25.2678 1140.07 24.9855C1136.12 23.7205 1128.85 23.1873 1130.85 20.3645C1130.92 20.2704 1130.94 20.1659 1131.02 20.0718C1129.69 20.5109 1128.43 20.9918 1127.15 21.4205C1125.22 22.0686 1122.96 22.9886 1120.44 23.1873C1117.46 23.4277 1114.35 23.0827 1112.43 22.0582C1110.73 21.1591 1109.67 20.0927 1108.26 19.1204C1107.05 21.755 1104.49 24.4 1099.14 25.9264C1098.4 26.24 1097.63 26.4805 1096.8 26.5745C1093.39 26.9509 1094.33 25.0168 1092.6 24.5568C1089.77 23.7936 1090.85 19.9778 1083.8 22.4346C1086.22 24.6928 1084.74 25.9159 1078.67 25.9473C1074.01 30.0246 1070.93 26.5327 1070.12 25.2782C1068.54 22.8109 1068.81 20.1345 1068.34 17.5523C1065.33 16.0782 1070.86 13.3809 1064.3 12.4086C1063.98 15.0641 1063.68 17.7196 1063.36 20.3855C1062.69 22.5077 1060.45 25.3305 1059.19 25.6337C1057.94 20.7828 1052.34 16.8518 1044.67 13.3704C1043.36 12.7745 1041.93 12.2309 1040.7 11.6141C1039.22 10.8614 1046.54 10.1818 1040.87 9.52318C1040.58 9.49182 1036.16 9.60684 1034.12 11.3109C1026.18 17.9182 1010.92 22.9259 1010.4 31.185C1010.37 31.5091 1008.89 31.8123 1007.96 32.1782C1004.9 27.6304 1011.88 22.4032 1001.47 18.6709C997.527 18.5559 999.105 19.9045 998.464 20.6886C997.921 21.3682 997.847 22.4973 995.11 21.4519C991.56 17.8032 986.653 14.5832 980.686 11.7291C975.212 14.0709 971.094 16.9459 967.544 19.9359C967.026 20.375 965.621 20.1973 965.3 19.8105C963.303 17.5418 957.952 17.6255 953.169 17.9914C948.903 18.3155 944.44 18.9218 940.076 18.6918C935.786 18.4723 932.556 17.0086 931.224 15.3254C930.953 14.97 930.805 14.4577 930.016 14.3114C929.227 14.165 928.093 14.2591 927.279 14.3009C925.923 14.3741 924.493 14.4473 923.309 14.74C918.452 15.9632 915.518 18.2213 910.019 19.0473C909.107 19.1832 908.269 18.765 908.491 18.3991C909.008 17.5523 907.652 16.695 907.011 15.8273C900.699 16.7264 893.721 17.7509 887.064 17.2073C880.727 16.695 875.87 14.6146 871.678 12.6282C869.681 14.1232 869.04 15.89 868.275 17.5523C868.103 17.9286 866.821 18.0646 866.204 17.7823C864.034 16.7578 862.16 15.6286 860.336 14.4891C856.243 11.98 852.421 9.38729 848.155 6.93048C846.257 5.8432 844.284 4.76638 842.04 3.79411C841.029 3.35502 839.92 2.90548 838.662 2.56048C841.35 7.6623 844.58 12.7223 848.722 17.6464C848.92 17.8868 848.476 18.2423 847.859 18.2946C843.569 18.5873 839.23 18.3678 835.013 17.9914C825.471 17.1446 816.274 15.4719 807.619 13.6109C803.058 12.6282 798.521 11.5514 794.206 10.3595C790.508 10.9659 787.154 10.3282 783.283 9.02138C781.779 8.67638 780.374 8.72863 779.042 9.18863C778.426 12.9941 777.834 16.7996 777.02 21.7864C774.703 19.9673 773.79 19.2668 772.903 18.5664C771.719 18.1482 770.634 18.5037 769.525 18.65C769.081 18.0228 770.634 17.8764 771.127 17.4687C768.415 14.8969 765.382 12.3773 764.174 9.50232C762.966 13.5587 763.41 17.5732 759.489 21.5878C756.555 18.9219 754.213 16.5486 751.377 14.28C744.695 8.91681 738.235 8.82277 729.95 13.9455C725.142 11.9278 722.652 8.77044 713.899 7.87135C719.027 11.9173 724.329 15.4091 720.975 20.0509C714.663 17.7718 714.836 14.7714 711.926 12.3773C709.091 15.9841 709.88 19.8732 707.414 23.3232C707.439 22.1941 708.745 20.8246 706.428 19.6118C702.384 19.5805 701.94 22.7168 698.044 21.8073C694.321 20.9395 695.036 18.7545 694.962 17.0295C694.888 15.2523 698.168 13.5064 695.159 11.5096C688.625 12.8268 689.069 16.58 682.215 18.2004C682.141 13.4541 685.962 9.48136 687.368 5.14272C681.771 8.48818 670.379 10.0773 671.834 15.4405C671.957 15.8691 675.237 19.9882 666.656 17.5418C663.87 17.1341 662.317 17.7614 661.108 18.7128C660.689 19.4237 661.158 20.1764 660.591 20.8245C660.64 19.6014 661.404 18.3259 660.812 17.0295C660.467 16.8414 660.097 16.6532 659.752 16.4755C653.12 17.4896 657.508 23.3755 648.114 22.1732C639.731 21.1069 642.961 16.8623 642.024 13.8932C641.975 13.7259 641.901 13.5482 641.827 13.3809C640.52 12.7223 639.188 12.7223 637.882 13.3809C637.586 14.0605 637.29 14.7296 636.994 15.4091C633.098 18.0227 635.194 21.2114 633.443 24.4C628.906 22.006 632.778 19.5178 629.843 17.5314C621.016 14.6355 628.068 10.6 626.293 7.05592C618.501 8.19547 614.778 10.7777 611.055 13.2032C606.74 16.005 604.028 13.8932 602.104 12.6595C600.822 11.8441 603.535 10.37 601.217 9.18863C595.373 9.29317 591.058 15.0327 583.119 9.38727C581.319 8.10136 579.42 6.83636 577.423 5.60273C569.04 6.15682 560.533 6.73184 553.185 8.56138C545.172 10.5477 538.613 13.7677 529.169 14.5518C528.578 14.6041 527.764 14.4787 527.641 14.1859C526.926 12.4087 526.087 10.6418 524.731 8.93773C520.983 10.4641 518.345 12.4296 515.707 14.3114C515.288 14.6041 514.351 14.6459 513.759 14.4159C504.241 10.6941 496.918 5.44593 483.949 3.8882C487.425 7.05593 491.494 10.5687 487.278 13.935C486.957 14.1859 486.143 14.2591 485.601 14.1232C481.557 13.1718 478.006 11.8755 474.653 10.5373C468.982 8.28958 463.582 5.66545 456.752 4.03455C452.955 6.21955 449.676 8.58226 442.575 9.18863C442.501 9.15726 442.427 9.11546 442.353 9.07364C440.849 8.93773 439.32 8.70772 438.013 8.34181C437.89 9.50227 437.865 10.6732 437.545 11.8232C437.323 12.6491 437.224 13.6841 436.041 14.2382C427.756 18.1064 435.843 11.4259 430.074 12.5446C426.819 13.1718 429.728 17.0818 423.293 14.9282C419.718 13.7363 415.378 11.8545 419.964 9.57544C419.446 9.34544 418.929 9.16772 418.288 8.98999C417.523 8.7809 416.71 8.59272 415.92 8.40454C414.219 8.00727 412.616 7.56823 411.482 6.88868C411.458 6.87823 411.458 6.85727 411.433 6.83636C410.496 6.5959 409.534 6.37639 408.351 7.26503C404.208 10.4118 399.376 13.3914 394.568 16.6114C393.68 15.6078 392.94 14.8132 392.053 13.82C388.995 16.3395 388.724 19.5805 379.823 19.5282C381.228 14.5414 384.089 9.86819 388.971 4.8291C379.798 6.98274 377.974 10.5164 373.56 13.2869C370.305 15.315 372.031 12.7014 371.045 12.4086C369.27 12.0218 368.259 12.2936 367.716 13.0568C367.47 13.3914 367.272 13.8932 367.766 13.9559C369.319 14.1545 366.385 14.5309 367.371 13.5796C366.508 12.5236 370.133 11.5827 369.196 10.1714C368.012 9.74272 370.774 6.94091 365.3 9.06318C362.292 10.2236 364.462 13.4228 357.089 12.8164C356.078 13.5273 354.747 14.1963 354.698 14.1441C355.289 12.8163 352.256 11.0496 349.569 9.20956C349.002 9.91001 348.213 10.5687 347.079 11.1332C343.947 12.7223 338.966 12.7328 334.725 12.0428C331.027 11.4364 327.674 10.4745 324.641 9.3768C325.356 10.5582 327.427 11.6036 326.885 12.9314C326.835 13.36 327.033 13.7887 326.835 14.2069C326.811 13.8619 326.786 13.5273 326.737 13.1823C326.638 12.4818 326.145 11.8545 325.159 11.29C324.148 10.9659 323.211 10.9764 322.323 11.3841C321.583 14.4891 321.559 17.6777 319.783 20.6782C318.699 22.4973 314.877 26.0414 309.723 23.5114C302.573 19.9986 296.852 15.5241 298.677 10.4432C293.277 10.3909 292.143 12.8582 288.74 13.9455C283.045 12.1264 281.96 8.50912 271.85 8.04912C288.05 15.5764 276.856 21.8491 270.938 28.5819C262.505 26.2923 264.774 23.0618 265.045 20.0509C260.163 20.4273 259.843 22.4764 256.563 23.1141C252.446 20.9186 254.073 18.075 252.396 15.5032C245.32 17.9809 250.843 22.1627 243.692 24.6718C243.298 22.8736 242.953 21.3368 242.607 19.8C242.262 18.5455 239.575 21.3368 239.451 19.4655C239.377 18.2632 237.577 17.3118 236.098 16.3396C236.295 14.2068 234.101 12.4295 230.747 9.91C231.265 13.1195 231.808 15.5032 231.98 17.8868C232.178 20.8664 228.726 19.1937 226.211 18.6291C221.23 21.8805 229.786 24.9855 226.802 28.2264C226.161 31.0596 222.734 27.62 221.255 28.6968C220.613 28.9373 219.923 29.0732 219.134 29.115C219.405 29.805 218.789 29.5541 218.912 28.8641C219.381 26.3864 218.961 23.9191 218.419 21.4623C217.655 20.5318 217.112 19.4968 213.907 19.6327C209.863 22.3509 206.682 25.2468 205.474 29.0105C200.173 24.2746 201.726 19.8314 200.715 15.5345C198.052 14.3636 203.082 11.8127 196.524 11.3423C196.302 12.3564 196.055 13.3705 195.833 14.3741C194.379 16.4859 192.998 18.5977 193.047 20.8245C193.121 25.435 187.647 27.62 176.872 27.4945C174.209 27.9859 173.987 29.3763 171.793 30.0245C174.012 28.8954 173.963 27.3169 176.009 26.1564C178.968 22.9573 187.129 21.1278 188.56 17.5314C181.927 16.9564 178.45 19.9464 172.286 20.2391C173.79 15.2314 181.162 11.4887 185.65 7.15004C168.464 10.736 163.311 18.1168 155.815 25.3827C151.772 20.2182 156.555 16.4441 158.873 12.3877C153.424 13.13 154.163 15.7855 149.7 16.6114C149.626 16.3291 149.577 16.0469 149.503 15.775C143.659 19.016 137.964 22.2987 131.479 25.3096C131.035 25.5082 130.172 25.5082 129.728 25.3096C127.805 24.4314 126.301 23.4278 125.019 22.3614C124.008 21.5041 123.17 20.5945 121.986 19.7791C121.123 19.1936 120.013 18.7232 118.287 18.7546C115.279 18.7964 112.321 19.6955 109.904 20.375C109.584 20.4586 109.288 20.4796 109.017 20.4482C108.967 20.4691 108.918 20.49 108.869 20.5109C103.789 22.2986 99.5976 24.4105 93.5073 25.6023C88.0582 26.6582 83.0035 25.7591 80.8337 23.4173C77.8256 20.1869 75.0394 16.8832 69.7381 14.2069C68.2834 14.1964 66.5327 13.8932 64.8561 13.8514H64.8314C64.8067 13.8514 64.7821 13.8514 64.7821 13.8514V13.8618C54.4262 15.7959 54.7714 12.6491 56.0536 10.1191C57.6316 7.04546 60.8616 4.13912 64.1163 0.270935C55.1906 2.53957 51.8126 5.48776 49.051 8.38367C45.5991 11.9905 43.4539 15.8377 40.7417 19.5804C36.7966 22.79 36.7965 22.79 33.4679 21.4832C30.5584 22.5077 27.3036 24.6091 25.9968 20.9919C25.701 20.1659 24.3695 19.3923 24.2215 18.5769C23.901 16.7891 21.5093 15.9841 17.9094 16.58C13.8164 17.2595 17.3176 18.4723 17.5395 19.5177C17.9587 21.3891 29.5968 24.9228 13.8164 24.7241C12.0164 24.7973 11.7945 23.2186 9.35345 23.9504C8.14528 25.7904 8.2439 27.8605 3.97826 29.69C2.27693 21.8491 0.674248 14.4577 -0.928452 7.05592C-1.79144 6.71092 -2.55581 6.73181 -3.2462 7.16044C-4.55302 14.1336 -6.82143 21.065 -8.12825 28.1009C-9.08987 23.1873 -10.0761 18.2632 -11.0378 13.3496C-11.9007 12.9523 -12.5418 13.0255 -13.035 13.5064C-13.2569 15.1686 -13.5034 16.8309 -13.7254 18.4932C-14.8842 18.9532 -14.1692 20.8141 -17.7691 19.4759C-18.706 18.1587 -19.4211 16.7995 -20.6293 15.5345C-23.3908 12.6595 -24.6977 7.73549 -30.1715 7.59958C-36.5823 7.44276 -39.763 12.0428 -44.1519 14.6564C-50.686 18.5664 -51.9435 23.6577 -60.4994 28.1637V15.9841C-64.198 17.96 -65.1349 19.7164 -65.702 21.5354C-66.2198 21.8073 -66.491 22.2778 -67.0582 22.3719C-69.4252 22.7482 -68.1677 21.7864 -68.4389 21.5146C-69.3266 20.5632 -68.4389 19.455 -69.6718 18.5037C-69.8444 16.8205 -70.0416 15.1477 -70.2142 13.4646C-76.9702 14.0082 -71.669 17.7196 -77.5373 18.4932C-78.9921 18.8277 -79.3373 21.0023 -81.7043 19.3818C-83.4303 18.2004 -82.592 16.35 -83.0111 14.1337C-86.4384 16.2455 -83.307 18.2945 -87.1042 19.5909C-92.1588 18.9009 -92.0849 16.0363 -97.1642 15.4509C-102.12 17.3432 -96.2272 19.915 -99.1367 22.3091C-103.427 18.901 -100.912 14.97 -107.002 12.2518C-110.405 14.6982 -113.808 17.1446 -117.21 19.5909C-117.186 22.1105 -121.574 23.94 -122.98 26.2505C-122.61 27.4005 -120.983 28.4459 -121.279 29.6586C-121.057 28.4459 -123.005 27.4318 -123.079 26.24C-123.103 25.0482 -121.648 23.8041 -123.843 22.6959C-125.174 21.3682 -122.462 19.5282 -126.752 18.5873C-126.752 47.1491 -126.555 75.7109 -126.999 104.273C-127.048 107.859 -125.322 108.559 -116.89 108.559C21.1395 108.413 159.169 108.455 297.198 108.455C631.594 108.455 965.99 108.434 1300.39 108.549C1308.82 108.549 1310.57 107.848 1310.5 104.273C1309.98 80.9068 1310.22 57.5723 1310.22 34.2377ZM65.2752 24.3059C64.067 24.4523 65.8917 25.2991 64.0177 25.2573C64.2397 24.9854 64.3629 24.6509 64.1163 24.3059C63.7218 23.7623 62.7356 23.5532 61.4534 23.5636C58.3467 24.1491 58.1741 25.3723 57.6316 27.1705C58.1741 22.7377 61.7246 19.0995 63.9438 15.3882C63.6232 18.3782 69.2696 21.2846 65.2752 24.3059ZM296.779 22.7168C296.557 22.6959 296.359 22.6645 296.211 22.5914C294.535 21.7445 292.316 21.0754 290.984 20.1032C290.713 19.8941 290.812 19.6641 291.181 19.4969C291.132 19.4446 291.107 19.3923 291.107 19.34C291.403 17.8764 291.354 16.3291 292.636 14.9386C292.883 14.6773 293.45 14.4891 294.165 14.5727C294.19 14.5727 294.214 14.5832 294.239 14.5937C294.485 14.6041 294.732 14.6355 294.954 14.6982C295.496 14.6877 296.113 14.8236 296.211 15.0641C297.173 17.5732 299.491 20.03 299.22 22.6018C299.121 23.2186 297.025 23.25 296.779 22.7168ZM386.727 26.6164C386.628 26.8359 386.036 27.0032 385.543 27.0032C384.409 26.9928 383.373 26.815 382.708 26.4073C381.697 25.78 382.067 24.8809 382.51 24.2014C382.93 23.5114 383.595 22.8109 384.483 22.2045C385.075 21.8073 386.283 21.9432 386.653 22.2673C387.047 22.3405 387.368 22.4868 387.368 22.7273C387.368 23.0932 387.294 23.4591 386.998 23.7937C387.146 24.7346 387.171 25.6755 386.727 26.6164ZM1036.85 22.8737C1034.78 24.055 1032.02 25.4036 1028.77 26.125C1028.64 26.2923 1028.32 26.4282 1027.93 26.4805C1027.61 26.5223 1027.31 26.5014 1027.04 26.4386C1026.94 26.4491 1026.84 26.47 1026.74 26.4805C1025.29 26.6582 1024.65 25.7695 1025.91 25.5186C1025.54 25.1004 1025.19 24.6718 1025.19 24.2223C1025.29 20.6259 1031.18 17.9704 1034.83 14.9282C1035.15 14.6563 1035.94 14.625 1036.51 14.74C1038.9 15.2104 1040.82 16.0468 1041.37 17.155C1042.35 19.1832 1039.62 21.3055 1036.85 22.8737ZM1189.16 17.3328C1188.79 17.8659 1188.3 18.3782 1187.75 18.8695C1187.43 19.3714 1187.06 19.8523 1186.64 20.3123C1185.19 21.9327 1183.24 23.5218 1180.55 24.8391C1180.11 25.0482 1179.57 25.0378 1179.15 24.9228C1178.43 25.1005 1177.25 24.8704 1177.28 24.4732C1177.35 21.0441 1181.71 18.2528 1185.73 15.43C1186.3 15.0328 1187.68 15.1268 1187.98 15.5555C1188.27 15.9423 1188.4 16.3396 1188.42 16.7368C1188.96 16.8205 1189.36 17.04 1189.16 17.3328ZM1210.44 23.1664C1210.69 23.94 1210.44 24.745 1210.36 25.5291C1210.39 24.9227 1210.41 24.3164 1210.36 23.71C1210.69 21.9014 1209.85 20.0613 1210.66 18.2632C1210.14 19.8732 1210.61 21.525 1210.44 23.1664Z" fill="#040000"/>
<path d="M1034.71 20.9814C1033.13 20.9814 1033.13 19.9359 1034.71 19.9359C1036.29 19.9359 1036.29 20.9814 1034.71 20.9814Z" fill="#040000"/>
<path d="M640.175 6.41821C640.692 6.439 641.235 6.47018 641.753 6.49096L640.175 6.41821Z" fill="#413E3E"/>
<path d="M1140.04 25.0168C1141.03 25.09 1141.99 25.1632 1142.98 25.2469L1140.04 25.0168Z" fill="#312E2E"/>
<path d="M1034.71 20.9814C1033.13 20.9814 1033.13 19.9359 1034.71 19.9359C1036.29 19.9359 1036.29 20.9814 1034.71 20.9814Z" fill="#EAE9E9"/>
<path d="M220.811 29.0628C222.266 26.1041 225.274 28.0486 227.863 28.655C227.394 34.6036 222.29 26.1878 220.811 29.0628Z" fill="black"/>
</svg>
