<svg width="45" height="76" viewBox="0 0 45 76" fill="none" xmlns="http://www.w3.org/2000/svg">
<path d="M37.4389 71.1057C36.6876 70.1308 35.8596 66.6101 35.3345 65.3372C34.8094 64.0642 34.0582 64.1367 34.2076 65.2606C34.3126 66.0582 35.5607 71.4803 36.4897 75.5408L31.1783 76C30.8794 72.5035 28.3187 65.0109 28.0238 62.9121C27.523 59.3632 25.1682 56.5193 25.1682 54.8193C25.1682 53.8203 23.6657 52.4225 22.0622 51.923C20.4587 51.4235 18.9561 49.925 17.9544 49.4255C16.9528 48.926 15.4987 47.8263 14.9978 47.4758C14.497 47.1254 13.2449 46.4285 12.4411 46.1263C11.6414 45.8282 10.6397 45.079 10.4377 44.5271C10.2358 43.9793 9.58551 43.0769 9.13717 42.227C8.6848 41.377 7.53366 39.7778 7.08533 39.4273C6.63699 39.0769 5.68377 38.6297 5.33237 38.4283C4.98098 38.2269 4.18124 37.6791 4.18124 37.0788C4.18124 36.4786 4.38319 34.7787 4.33069 34.1825C4.28222 33.5823 4.12873 33.1835 4.12873 32.9338C3.37343 32.0354 2.07285 30.5893 1.37006 29.0142C0.941915 28.0555 -0.148632 25.0383 0.0169695 23.8419C0.0815945 23.3908 0.36029 23.3867 0.52993 23.6526C1.60836 25.3525 2.62216 26.988 3.54711 27.6366C4.82345 27.6366 6.27752 28.9095 6.82683 29.6104C7.37614 30.3113 8.87867 33.1432 8.91906 34.7948C10.1227 35.8945 11.2213 36.8573 11.6979 37.4535C12.1301 37.9973 13.2651 38.7264 13.8144 38.6257C14.3637 38.525 14.9171 37.3004 15.2685 35.8019C15.6199 34.3034 16.1207 31.1412 16.0197 30.1422C15.9188 29.1431 15.4704 27.7453 15.4179 26.843C15.3694 25.9447 15.216 25.0947 15.1675 24.4462C14.5657 22.847 13.4145 19.7613 13.0147 19.012C12.6148 18.2628 12.3644 16.9616 12.3119 16.015C12.2634 15.0643 12.4613 12.2163 12.5138 11.5678C12.5623 10.9192 12.4654 10.7178 12.3644 9.96857C12.2634 9.21931 12.013 8.15584 12.114 7.35825C12.2149 6.56065 12.1422 5.90807 12.3482 5.36425C12.3846 3.8174 12.9662 1.42057 13.879 0.276545C14.2547 -0.194762 14.5455 -0.00543364 14.5091 0.409478C14.4324 1.25139 14.5334 2.79824 14.8848 3.5475C15.7855 4.29676 16.3792 6.21825 16.4519 7.24948C16.5165 8.15987 16.3065 10.3714 16.2096 11.0723C16.4479 13.1549 16.9891 16.2607 17.0901 17.1107C18.0433 18.6576 18.8996 20.6032 19.1985 21.2034C19.4974 21.8036 20.0911 22.5287 20.7333 23.0766C21.2746 23.5398 22.3611 22.9396 22.6115 22.138C22.8619 21.3404 23.807 19.6888 24.1584 18.6898C24.5098 17.6908 25.2934 16.583 25.3863 15.4873C25.4631 14.5689 25.7741 13.4732 26.1255 12.9253C26.4769 12.3775 26.695 12.0915 26.7475 11.5396C26.7959 10.9917 27.3655 9.84772 27.8946 9.40461C28.4964 8.89705 29.0215 8.748 29.8212 8.99775C30.6209 9.24751 31.1097 9.68659 31.4611 10.1337C31.8125 10.5849 31.9377 11.0723 31.6873 11.8216C31.4368 12.5708 30.8996 13.4893 30.4473 13.9404C30.0474 15.4873 29.5587 16.5427 29.0578 17.296C28.5085 19.1933 28.2177 20.5428 28.1167 21.3444C28.0157 22.142 27.834 23.4633 28.04 24.0796C28.2702 24.7644 28.9609 24.7725 29.4133 24.3978C29.8656 24.0232 30.9925 22.6939 31.2914 22.1702C31.5903 21.6465 32.1558 20.4461 32.2689 20.1077C32.382 19.7694 33.0767 19.2094 33.828 19.1691C34.6317 19.1289 35.2174 19.2819 35.5567 19.8821C35.896 20.4824 36.1585 20.6878 36.1221 21.4733C36.0858 22.2588 35.5971 22.9718 35.1083 23.6647C34.7327 25.0867 34.45 26.3435 33.7553 27.4674C34.8821 27.6728 35.6132 27.9185 36.1585 28.124C36.6876 28.3254 37.0229 28.6114 37.2854 29.0988C37.5479 29.5863 37.9438 29.9246 38.3355 30.2429C39.1151 30.8713 39.3695 31.2902 39.3695 32.0395C39.3695 32.7887 38.7314 34.7183 37.867 35.6367C38.2225 36.6317 38.7354 37.4776 38.4365 38.38C38.586 40.4787 38.1861 42.4284 37.9357 43.8745C37.6853 45.3247 36.5462 47.8021 36.2312 48.6964C35.6051 50.4688 35.3305 51.8707 35.4315 52.8173C35.5082 53.5343 37.1158 55.8345 37.4348 57.5143C37.8347 59.613 39.4867 62.7591 40.4399 64.7088C42.1202 68.1489 45 74.7996 45 74.7996L39.1474 75.3071C38.485 73.4219 37.8024 71.577 37.4389 71.1057Z" fill="#040000"/>
</svg>
