<svg width="550" height="505" viewBox="0 0 550 505" fill="none" xmlns="http://www.w3.org/2000/svg">
<g clip-path="url(#clip0_21_2)">
<path d="M534.524 500.054C530.704 499.132 526.929 498.238 523.258 496.989C518.323 496.776 513.3 495.25 508.779 493.554C508.323 493.393 507.902 493.153 507.538 492.845H507.449C498.924 489.431 489.269 489.587 481.106 485.486C479.008 484.996 476.925 484.521 474.871 484.067C474.291 484.154 473.697 484.103 473.142 483.918L470.549 483.08L469.604 482.868V482.768C462.128 480.278 454.43 477.51 446.511 477.652H445.92C445.452 477.668 444.984 477.592 444.548 477.428C444.111 477.265 443.713 477.017 443.379 476.701L442.899 476.552L442.854 476.992C434.093 475.126 428.567 473.998 428.567 473.998L429.21 468.747H429.417C429.314 466.277 429.166 463.779 430.104 461.438L432.246 444.003L432.549 444.046C432.955 441.817 432.97 439.54 433.184 437.29C433.184 437.127 433.236 436.971 433.266 436.815H433.125L446.304 329.353H495.541L424.866 265.021L447.102 213.653L463.509 220.266L428.294 117.737L341.493 174.944L354.724 180.799L351.03 196.31L349.442 197.85L338.583 185.376L339.912 174.547L348.378 105.276L371.944 104.51L329.504 60.1243L335.14 42.4624L354.724 44.7544L369.683 13.2198L375.77 13.603L376.701 4.83233C370.74 4.70461 353.933 -3.05176e-05 353.933 -3.05176e-05L351.414 9.79246L354.591 11.0626L346.649 34.4794H326.8L322.456 52.7799L276.655 4.85364L182.393 110.584H208.603L220.245 200.859L209.63 209.275L200.396 183.339L214.956 176.243L127.328 128.92L87.0003 233.259L109.066 222.92L130.238 265.723L60.8862 316.58L103.06 319.213L114.954 423.375L114.695 423.417C114.947 423.907 115.076 424.447 115.072 424.993V426.994C115.272 427.831 115.471 428.669 115.648 429.499C115.731 429.865 115.755 430.24 115.722 430.613H115.781L118.227 452.092L117.732 452.177C117.751 452.228 117.765 452.28 117.776 452.334C118.308 454.618 118.698 456.93 118.943 459.259H119.046L120.709 473.842C117.384 474.253 113.912 474.75 110.366 475.325V475.119C107.858 476.173 105.198 476.858 102.477 477.148C102.055 477.194 101.628 477.194 101.206 477.148C100.379 477.432 99.5588 477.716 98.7314 477.964C93.8558 479.383 88.3892 479.774 83.3732 480.519C79.2437 481.427 75.0994 482.385 70.9847 483.357V483.237C62.5262 485.997 53.3216 486.366 45.1291 489.8V489.928C40.416 491.191 35.9097 492.426 31.6916 493.611V493.504C31.2229 493.825 30.6805 494.032 30.1107 494.108C27.0302 495.683 23.5434 496.095 20.0639 496.904C14.2797 498.245 9.06421 501.161 3.23562 502.318C2.81147 502.408 2.37445 502.43 1.94284 502.382L0.088623 502.963L550.081 504.993C545.012 503.024 539.815 501.375 534.524 500.054Z" fill="black"/>
<path d="M277.63 73.6847L254.035 77.7223C253.983 77.0908 253.954 76.4522 253.954 75.8135C253.954 70.0282 256.15 64.4414 260.13 60.0995C264.11 55.7576 269.602 52.9585 275.576 52.2265L277.63 73.6847Z" fill="#FFBB43"/>
<path d="M281.974 72.9112L280.223 52.0491C285.358 52.3495 290.267 54.1799 294.269 57.2857C298.27 60.3915 301.164 64.6181 302.547 69.3775L281.974 72.9112Z" fill="#FFBB43"/>
<path d="M278.044 78.0062L280.097 99.5141C279.639 99.5496 279.174 99.5567 278.708 99.5567C273.188 99.5557 267.827 97.7828 263.475 94.5198C259.124 91.2568 256.033 86.6909 254.692 81.5471L278.044 78.0062Z" fill="#FFBB43"/>
<path d="M303.448 75.8135C303.449 81.2084 301.539 86.4431 298.032 90.6573C294.526 94.8716 289.631 97.8147 284.153 99.0032L282.336 77.3818L303.382 74.1956C303.426 74.6971 303.448 75.2364 303.448 75.8135Z" fill="#FFBB43"/>
<path d="M165.025 197.531L146.224 205.62L134.885 187.916L157.904 176.86L165.025 197.531Z" fill="#FFBB43"/>
<path d="M170.218 212.582L156.057 220.969L148.396 208.998L166.237 201.029L170.218 212.582Z" fill="#FFBB43"/>
<path d="M386.423 194.047L412.744 204.329L407.019 218.563L384.642 203.428L386.423 194.047Z" fill="#FFBB43"/>
<path d="M422.628 179.777L414.103 200.965L387.228 189.796L390.331 173.419L422.628 179.777Z" fill="#FFBB43"/>
<path d="M161.974 376.91L148.16 376.272L154.373 424.524L167.906 423.602L161.974 376.91ZM198.696 378.606L199.686 421.438L215.665 420.352V379.401L198.696 378.606ZM194.094 378.393L167.167 377.152L172.723 423.276L195.461 421.722L194.094 378.393ZM198.224 357.815L198.549 373.135L215.643 373.618V358.716L198.224 357.815ZM159.278 355.743L145.412 355.033L147.576 371.716L161.376 372.106L159.278 355.743ZM193.422 357.56L164.611 356.027L166.554 372.248L193.887 373.015L193.422 357.56ZM195.638 427.008L173.336 428.335L174.481 437.801L195.941 436.793L195.638 427.008ZM168.549 428.619L154.964 429.385L156.16 438.61L169.716 437.971L168.549 428.619ZM199.819 426.767L200.041 436.602L215.672 435.892V425.851L199.819 426.767Z" fill="#FFBB43"/>
<path d="M390.434 430.613L389.341 439.916L400.525 440.625L401.655 431.4L390.434 430.613ZM365.687 428.825L365.421 438.326L384.702 439.596L385.699 430.272L365.687 428.825ZM367.031 381.281L365.827 423.971L386.194 425.617L390.973 380.842L367.031 381.281ZM396.27 380.742L390.973 426L402.209 426.916L407.927 380.529L396.27 380.742ZM346.517 427.405V437.049L360.922 437.993L361.003 428.456L346.517 427.405ZM346.517 381.665V422.396L361.047 423.574L361.395 381.395L346.517 381.665ZM367.615 361.03L367.201 375.378L391.653 374.505L393.219 359.809L367.615 361.03ZM398.745 359.546L397.016 374.313L408.755 373.895L410.579 358.993L398.745 359.546ZM346.517 362.037V376.123L361.439 375.583L361.565 361.32L346.517 362.037Z" fill="#FFBB43"/>
<path d="M264.414 238.688L277.098 257.677L254.153 256.676C255.367 249.741 258.982 243.403 264.414 238.688Z" fill="#FFBB43"/>
<path d="M281.124 231.734L280.681 257.833H280.467L266.586 236.999C270.064 234.567 273.989 232.788 278.154 231.755C279.143 231.685 280.135 231.678 281.124 231.734Z" fill="#FFBB43"/>
<path d="M298.602 237.794L283.451 257.953H282.941L283.887 231.975C288.039 232.457 293.756 233.891 298.602 237.794Z" fill="#FFBB43"/>
<path d="M308.154 259.046L285.874 258.067L301.262 240.327C304.926 244.364 307.689 250.318 308.154 259.046Z" fill="#FFBB43"/>
<path d="M300.767 345.539L298.551 486.04H251.737L248.199 348.512L248.14 346.383C248.14 346.383 249.344 328.331 266.66 324.521C266.66 324.521 268.248 324.521 270.353 324.457C270.811 324.457 271.306 324.457 271.831 324.457H271.875C275.244 324.414 279.262 324.4 280.74 324.542C280.777 324.563 297.177 325.003 300.767 345.539Z" fill="#FFBB43"/>
<path d="M291.629 348.193L289.413 486.061H251.737L248.199 348.533C248.561 345.482 251.154 330.637 266.667 327.246C266.667 327.246 268.255 327.246 270.361 327.182C270.871 327.182 271.299 327.182 271.609 327.246C271.683 327.217 288.053 327.664 291.629 348.193Z" fill="black"/>
</g>
<defs>
<clipPath id="clip0_21_2">
<rect width="550" height="505" fill="white"/>
</clipPath>
</defs>
</svg>
