<svg width="50" height="27" viewBox="0 0 50 27" fill="none" xmlns="http://www.w3.org/2000/svg">
<path d="M48.8577 0.0857427C46.2996 0.710119 41.4226 1.92459 35.789 6.46663C32.8476 8.83681 30.7411 12.5708 29.0813 14.7916C28.9544 14.5027 28.8519 14.1673 28.9885 13.8906C29.1277 13.6139 29.3449 13.1976 29.1033 12.5268C28.8616 11.8559 28.7347 11.1164 29.0789 9.86764C28.2489 10.4235 26.5891 12.0885 26.0375 13.2662C25.4834 13.0116 24.5046 13.0703 23.9627 13.2662C23.4086 12.086 21.7487 10.421 20.9213 9.86764C21.2679 11.1164 21.141 11.8559 20.8969 12.5268C20.6552 13.1976 20.8725 13.6139 21.0116 13.8906C21.1507 14.1673 21.0458 14.5027 20.9188 14.7916C19.259 12.5708 17.1525 8.83926 14.2112 6.46663C8.57749 1.92459 3.70295 0.710119 1.14242 0.0857427C-0.214738 -0.24481 -0.265998 0.455472 0.485808 0.952524C2.00651 1.95887 4.63539 4.31681 5.32617 7.37014C6.19514 11.207 4.87704 14.9312 3.49303 17.1863C6.84687 15.6952 10.8231 16.18 12.5513 17.5683C14.2795 18.9566 15.3169 21.3831 15.456 22.9085C17.2892 22.5266 19.2932 22.8743 20.8163 23.3591C21.9953 23.7361 24.2385 25.0584 25.0001 27C25.7616 25.0584 28.0048 23.7337 29.1838 23.3591C30.7045 22.8743 32.711 22.5266 34.5441 22.9085C34.6832 21.3831 35.7206 18.9542 37.4488 17.5683C39.177 16.18 43.1533 15.6952 46.5071 17.1863C45.1231 14.9312 43.805 11.207 44.674 7.37014C45.3647 4.31681 47.9936 1.95887 49.5143 0.952524C50.2686 0.455472 50.2173 -0.24481 48.8577 0.0857427ZM4.98444 15.9669C6.41238 14.0473 11.2088 9.35345 13.2592 8.1047C11.9216 9.99986 7.10317 14.5321 4.98444 15.9669ZM15.8978 21.9193C16.1273 19.8846 17.8115 17.179 19.3103 16.3244C18.412 17.5022 16.7058 20.3008 15.8978 21.9193ZM21.9928 15.5556C23.2719 15.487 24.2409 15.8666 24.5509 16.8043C23.3061 17.1863 22.4078 16.8043 21.9928 15.5556ZM25.4492 16.8043C25.7592 15.869 26.7282 15.487 28.0073 15.5556C27.5948 16.8043 26.6941 17.1863 25.4492 16.8043ZM30.5654 16.3489C32.0641 17.2035 33.7459 19.9091 33.9778 21.9438C33.1699 20.3253 31.4636 17.5267 30.5654 16.3489ZM45.211 16.0159C43.0898 14.5835 38.2738 10.0513 36.9362 8.15367C38.9866 9.40242 43.783 14.0963 45.211 16.0159Z" fill="#040000"/>
</svg>
