<svg width="54" height="27" viewBox="0 0 54 27" fill="none" xmlns="http://www.w3.org/2000/svg">
<path d="M47.0083 3.39294C42.6801 3.91493 39.0818 2.07492 39.0818 2.07492C38.8385 7.00773 34.8048 11.8362 32.1669 14.0155C31.9877 13.1672 31.6931 12.4103 31.309 11.7579C31.3858 11.4577 31.7828 9.42194 29.99 6.62929C29.99 6.62929 28.9144 7.15128 29.1577 9.69599C28.6711 9.50024 28.1589 9.42194 27.6595 9.53939C27.1601 9.64379 26.7119 9.91784 26.3533 10.3093C25.585 7.97342 24.4197 7.93427 24.4197 7.93427C23.9203 11.0662 24.9447 12.7757 25.188 13.115C25.1112 13.8328 25.1368 14.5897 25.2905 15.3726C21.9867 14.3939 16.5957 11.6274 14.47 7.29483C14.47 7.29483 8.50272 14.6288 -0.0128174 11.4838C-0.0128174 11.4838 4.39221 14.2112 5.05809 22.0411C5.05809 22.0411 8.84846 15.5945 10.5644 19.5747C14.2651 14.2504 16.4164 19.8096 16.506 20.0445C16.506 20.0445 20.4757 15.2943 21.9355 21.5843C21.9355 21.5843 25.8795 17.0691 31.3218 27L31.309 26.9347V26.9478V27C32.3974 15.6728 37.8013 18.2044 37.8013 18.2044C36.6744 11.8492 42.1807 14.5766 42.1807 14.5766C42.1679 14.3417 41.963 8.36491 47.4437 11.7187C47.4949 7.38618 53.5006 11.7448 53.5006 11.7448C51.0292 4.29338 54 0 54 0C51.7462 2.17931 49.2876 3.1189 47.0083 3.39294ZM27.5826 13.2847C26.6478 13.2586 26.6478 13.4543 26.3789 13.3891C26.0588 13.2977 26.174 12.3581 26.174 12.3581C26.7887 12.4364 28.5174 13.3108 27.5826 13.2847ZM30.3486 12.5278C30.1309 12.7105 30.0541 12.5278 29.2089 12.9323C28.3509 13.3369 29.5931 11.8362 30.1437 11.4969C30.1309 11.4969 30.6047 12.319 30.3486 12.5278Z" fill="#040000"/>
</svg>
