<svg width="45" height="29" viewBox="0 0 45 29" fill="none" xmlns="http://www.w3.org/2000/svg">
<path d="M42.8946 0.869817C40.804 1.90408 36.8229 3.89616 32.832 8.83575C30.7481 11.4137 29.65 14.9717 28.6451 17.1689C28.4794 16.9513 28.3258 16.6898 28.3904 16.43C28.4571 16.1697 28.5643 15.7766 28.2255 15.2608C27.8867 14.7451 27.6338 14.1488 27.6895 13.0307C27.0797 13.6632 25.9671 15.3932 25.7183 16.4929C25.1899 16.3893 24.3551 16.6336 23.9246 16.9062C23.217 16.0246 21.4597 14.9557 20.6372 14.6554C21.1786 15.6359 21.2121 16.2827 21.131 16.8952C21.0519 17.5073 21.3204 17.8139 21.4942 18.0187C21.6681 18.2235 21.6423 18.5264 21.5885 18.7945C19.7235 17.2585 17.1799 14.5416 14.1776 13.1332C8.42778 10.4377 3.97851 10.3877 1.64399 10.3729C0.406706 10.3654 0.497987 10.9642 1.24418 11.2322C2.75371 11.7752 5.48298 13.2335 6.67139 15.6622C8.16556 18.714 7.74716 22.1067 6.98732 24.2778C9.59803 22.3565 13.1295 21.9721 14.8923 22.7948C16.6552 23.6175 18.0218 25.4503 18.4375 26.7047C19.9483 26.0186 21.7481 25.9117 23.1588 26.0159C24.251 26.098 26.4463 26.7625 27.4807 28.2428C27.7631 26.4592 29.4459 24.899 30.3926 24.3494C31.6134 23.639 33.2807 22.9472 34.9394 22.9031C34.7643 21.5933 35.1909 19.3451 36.4165 17.8361C37.6418 16.3251 40.9854 15.1257 44.1736 15.711C42.5405 14.0912 40.6798 11.2235 40.6881 7.8256C40.6941 5.1217 42.5102 2.61628 43.6301 1.46758C44.1859 0.899585 44.006 0.321207 42.8946 0.869817ZM8.04056 22.9559C8.90333 21.058 12.141 16.1576 13.6718 14.6996C12.8824 16.5589 9.5944 21.3279 8.04056 22.9559ZM18.6279 25.7853C18.4323 24.0294 19.3644 21.4199 20.4947 20.4032C19.9461 21.572 19.013 24.2641 18.6279 25.7853ZM22.6649 19.2227C23.7574 18.9103 24.6686 19.0363 25.1182 19.7628C24.116 20.3318 23.2655 20.1896 22.6649 19.2227ZM25.8948 19.5839C25.9817 18.736 26.7455 18.222 27.8645 18.0249C27.7497 19.1566 27.045 19.657 25.8948 19.5839ZM30.2296 18.1822C31.6908 18.6019 33.6686 20.541 34.263 22.2051C33.2512 21.0056 31.2342 18.9932 30.2296 18.1822ZM42.8265 14.9854C40.7153 14.204 35.6743 11.3538 34.1504 10.0252C36.1648 10.6664 41.2203 13.6564 42.8265 14.9854Z" fill="black"/>
</svg>
