<svg width="159" height="228" viewBox="0 0 159 228" fill="none" xmlns="http://www.w3.org/2000/svg">
<g clip-path="url(#clip0_29_12)">
<path d="M113.525 187.473L113.147 182.191L104.953 172.064L106.154 168.965L114.82 168.468L128.3 162.844L134.658 152.348L141.205 151.458L147.005 148.282L159 136.382L145.675 145.825L132.676 148.068L123.632 160.216L109.097 161.38L112.332 153.042L101.77 140.038L104.378 137.213L125.151 136.305L133.096 134.79L139.531 138.206L133.096 132.136L127.047 133.651L108.162 133.103L130.411 123.481L138.836 124.371L144.379 128.01L152.307 123.113L144.8 125.424L138.193 119.783L142.921 109.664L148.18 107.601L141.265 108.765L134.915 119.749L130.848 117.925L108.797 126.768L100.431 129.277L97.7201 132.949L95.4549 127.607L94.9315 128.361L91.4651 122.171L94.4167 119.86L98.9556 121.76L107.278 116.829L115.224 117.206L108.411 114.167L98.5781 119.107L93.1039 115.331L96.9307 108.029L110.693 107.721L98.4923 105.075L100.998 100.307L108.771 92.5081L118.261 102.028L128.48 96.7114L134.675 98.4493L139.025 96.1636L135.267 96.9426L127.717 94.0576L118.261 98.9886C118.261 98.9886 114.151 90.4278 112.581 88.6814L114.675 86.5755L112.547 78.7766L118.253 75.4635L137.867 73.8199L144.834 67.5191L151.055 63.8379L145.495 65.6614L137.627 70.5753L110.144 69.9418L108.351 63.3585L111.277 56.8266L122.036 59.5319L132.633 53.8389L138.691 54.6008L132.255 51.947L122.036 56.878C122.036 56.878 114.486 54.8063 111.912 53.6848L112.401 51.0567L110.462 49.276L126.198 41.6997L133.388 42.8383L125.82 38.6606L109.226 48.1374L103.881 39.7992L110.693 32.9677L119.394 34.1063L125.82 27.2747L119.394 31.4524L109.175 29.1752L101.667 36.3492L93.6617 23.859L114.64 0L93.7217 18.4657L85.3131 11.7197L92.2974 19.7327L88.3248 23.234L91.3192 28.3791L86.4457 30.6905L79.633 26.8981L73.1978 29.1752L79.633 29.5519L87.2007 33.3443L92.5548 30.5022L103.066 48.574L103.546 56.0647L89.852 57.2632L85.6906 50.055L83.6657 49.3959L78.1229 37.5306L80.3366 48.3172L71.6963 45.5007L65.2611 49.2931L60.7222 40.9463L64.12 52.7089L71.6877 49.6784L83.0393 53.8475L85.3474 57.4088L71.6877 64.0948L86.7374 59.5319L88.7109 62.5795L103.795 60.0541L104.696 74.1537L97.7887 69.0258L89.8435 74.3335L82.2757 70.1644L91.3536 77.3726L97.7887 73.1949L104.936 77.7835L105.168 81.3106L93.3871 93.8693L84.0947 86.1046L81.2375 88.1506L76.9045 85.531L73.1034 72.3131L63.3906 69.4795L59.9586 59.1552L60.9882 68.7775L60.216 68.555L46.6335 51.8443L30.3568 55.3884L45.0204 55.2001L57.6848 72.9124L69.0622 77.501L74.5278 92.9618L70.332 95.9667L51.6443 102.379L46.0243 99.5622L50.6576 94.4771L47.2169 86.5926L49.6795 80.6685L34.4324 70.3099L43.7763 81.165L41.3223 89.0495L44.763 94.4771L41.6226 97.3449L40.8333 96.9426L35.9082 94.4771L23.7672 97.3278L12.7931 104.836L0 95.4787L12.2955 108.799L24.1018 101.403L34.9129 99.4252L28.186 108.876C28.186 108.876 17.967 110.768 19.1081 110.768C20.2407 110.768 29.7047 110.392 29.7047 110.392L37.4955 101.891L46.2388 110.272L61.0997 105.863L52.3994 123.661L65.4327 104.57L67.8695 103.851L79.1782 102.858L83.6056 98.9116L84.8498 105.152L76.9216 118.601L72.4428 115.691L62.9874 118.721L70.9326 118.345L75.3086 121.349L74.6393 122.488L76.0894 125.262L70.4693 131.485L56.9383 132.667L53.592 139.173L49.0016 133.908L39.5376 134.285L36.1313 128.969C36.1313 128.969 17.6667 127.505 14.0287 127.145C17.4865 127.693 34.2436 131.246 34.2436 131.246L38.0189 137.701L47.0968 137.324L51.6958 142.854L50.8292 144.532L32.0471 154.6L32.3732 171.148L34.9815 156.808L54.5702 147.845L61.1855 137.615L80.9887 134.679L86.214 144.678L86.7203 150.901L82.2757 155.173L72.0567 149.866L63.7338 158.974L55.4025 155.558L64.8664 161.251L55.8057 170.36L64.8836 163.152L66.8227 159.753L73.2064 154.805L82.2843 159.359L86.8232 156.706L87.2007 156.825L87.5783 161.5L83.3654 169.418L83.2281 170.112C81.0745 169.042 79.2469 168.091 79.2469 168.091L69.0278 176.062L53.8923 173.784L44.0508 178.339L37.2467 174.161L45.192 181.755L53.5148 177.2L47.8347 187.824L57.2901 177.577L64.4803 179.854L68.2642 183.646L69.3968 180.607L75.4458 177.192L79.2297 174.538L82.0011 176.19L80.1907 185.264L77.6081 188.449C76.6557 192.704 74.0044 200.854 74.3819 202.917C74.7594 204.971 73.6097 210.613 73.6097 210.613L69.8172 218.095L66.4109 220.621L56.5694 224.721L51.6443 227.88L60.3447 225.543C60.3447 225.543 71.4989 225.774 71.4989 225.226C71.4989 224.67 77.1705 224.336 77.1705 224.336L73.1978 227.195C73.1978 227.195 82.842 225.843 83.2195 225.32C83.5971 224.79 91.1562 226.254 91.1562 226.254L97.4026 224.293L106.661 226.613L116.871 224.379L121.788 226.391L132.753 227.349L125.383 224.61L133.139 224.233L142.02 228L135.224 221.793L125.589 216.494C125.589 216.494 120.226 199.227 120.226 198.662C120.26 198.106 113.525 187.473 113.525 187.473Z" fill="black"/>
</g>
<defs>
<clipPath id="clip0_29_12">
<rect width="159" height="228" fill="white"/>
</clipPath>
</defs>
</svg>
