<svg width="191" height="150" viewBox="0 0 191 150" fill="none" xmlns="http://www.w3.org/2000/svg">
<path d="M190.084 -28.0078C175.792 -24.654 162.007 -19.4657 148.776 -13.0262C133.374 -11.7939 117.973 -10.5662 102.571 -9.33379C97.9319 -8.96219 93.2884 -8.5906 88.6495 -8.2237C85.1621 -10.6791 81.6936 -13.1862 78.5164 -16.0367C75.6259 -18.6331 72.538 -21.7094 71.4289 -25.5477C72.6226 -26.0369 73.8164 -26.5261 75.0102 -27.0153C76.0442 -27.4386 75.123 -28.2523 74.3052 -27.9184C72.6273 -27.2316 70.9495 -26.5402 69.2716 -25.8534C63.5846 -25.0773 57.8225 -24.8609 52.0932 -25.1573C47.1254 -25.416 41.9037 -25.9287 37.2225 -27.7349C36.7854 -27.9043 35.5822 -27.2363 35.6856 -27.194C40.5266 -25.3266 45.8846 -24.7998 51.031 -24.5317C56.5206 -24.2447 62.0289 -24.4517 67.4856 -25.1149C65.5445 -24.32 63.6034 -23.5204 61.6623 -22.7254C52.1496 -20.8392 39.1542 -19.9549 32.0385 -27.7726C31.6813 -28.163 30.1303 -27.5797 30.5204 -27.1517C37.1614 -19.8561 48.7562 -19.8608 58.269 -21.3331C55.4255 -20.1666 52.582 -19 49.7385 -17.8335C45.377 -17.4854 40.8979 -18.8401 36.9217 -20.5005C32.6683 -22.2786 28.5981 -24.654 25.1906 -27.7773C24.7629 -28.1677 23.2307 -27.5468 23.6772 -27.1329C27.4513 -23.6709 32.0338 -21.065 36.8042 -19.2258C40.1506 -17.937 43.7367 -16.9398 47.3462 -16.8457C45.9081 -16.2577 44.4699 -15.6651 43.0364 -15.0771C38.9004 -15.1006 34.7269 -16.761 31.1173 -18.652C27.5594 -20.5146 24.1143 -22.8853 21.5764 -26.0369C21.7456 -26.4837 21.9148 -26.9306 22.084 -27.3774C22.4083 -28.2288 20.7774 -28.1724 20.533 -27.5327C20.3544 -27.067 20.1805 -26.606 20.0019 -26.1404C14.4888 -23.2287 6.06648 -22.7725 0.412427 -25.5006C0.0270305 -26.2721 -0.358366 -27.0435 -0.743763 -27.8196C-0.969362 -28.2712 -1.74486 -28.1253 -2.10205 -27.749C-2.22425 -27.9278 -2.61435 -27.956 -2.77885 -27.9372C-3.11254 -27.8902 -3.59194 -27.7349 -3.70004 -27.3633C-3.98204 -26.3897 -4.38153 -25.4583 -4.95023 -24.621C-5.21813 -24.2447 -5.42963 -23.9766 -5.74452 -23.6662C-5.89492 -23.5157 -6.05942 -23.3745 -6.22392 -23.2381C-6.23332 -23.2287 -6.22862 -23.2334 -6.23332 -23.2287C-6.23802 -23.224 -6.23802 -23.224 -6.25212 -23.2146C-6.29442 -23.1864 -6.33672 -23.1535 -6.37902 -23.1252C-6.47302 -23.0594 -6.56702 -23.0029 -6.66102 -22.9418C-6.90541 -22.796 -7.12161 -22.4479 -6.79262 -22.2645C-6.44952 -22.0763 -5.94662 -22.2221 -5.63642 -22.4056C-3.92094 -23.431 -2.84935 -25.2419 -2.23365 -27.1093V-27.1046C-1.88585 -26.4038 -1.53336 -25.7029 -1.18556 -25.002C-2.59085 -22.6266 -4.38153 -20.7687 -6.68922 -19.2352C-7.60571 -18.6237 -6.26622 -18.0922 -5.61762 -18.5203C-3.54024 -19.8985 -1.85766 -21.5636 -0.466466 -23.558C-0.0575695 -22.7395 0.351327 -21.9164 0.764924 -21.0979C-0.969362 -18.3697 -3.50734 -16.4976 -6.48242 -15.2605C-7.52581 -14.8278 -6.58112 -14.2257 -5.82442 -14.5409C-2.99975 -15.7168 -0.461767 -17.4243 1.41352 -19.8044C1.73312 -19.1647 2.05271 -18.525 2.37231 -17.8805C0.370127 -15.0583 -2.91045 -12.7205 -6.26152 -11.8409C-7.23441 -11.5869 -7.03231 -10.8014 -6.05472 -11.0601C-2.69895 -11.9397 0.642725 -14.014 2.96451 -16.6952C3.4157 -15.7921 3.8669 -14.8889 4.3181 -13.9858C1.88822 -10.1381 -2.22425 -7.07598 -6.43542 -5.45318C-7.51641 -5.03455 -6.49652 -4.86521 -5.87612 -5.1051C-1.81066 -6.67616 2.17961 -9.32438 4.90089 -12.824C5.48369 -11.6575 6.06648 -10.4909 6.64928 -9.32438C5.97718 -7.86151 5.03719 -6.52094 3.9656 -5.32148C3.3546 -4.63943 2.29711 -3.40234 1.21612 -2.93196C-1.14796 -3.106 -3.51204 -3.28004 -5.87142 -3.45408C-6.68452 -3.51523 -7.52581 -2.32518 -6.43072 -2.24521C-4.51313 -2.1041 -2.59085 -1.96299 -0.673264 -1.82187C1.11742 -0.810562 2.58851 1.35317 3.7212 2.90541C5.32389 5.10677 6.88427 7.52922 7.74437 10.1351C7.43417 11.3816 7.12397 12.6281 6.80907 13.8746C4.022 8.40412 0.10223 3.43224 -5.38263 0.482973C-5.79152 0.261894 -7.09811 0.934534 -6.91951 1.03331C-0.781363 4.33536 3.3734 10.1539 6.18398 16.4005C5.75628 18.1221 5.32389 19.8437 4.89619 21.5606C2.57441 17.1578 -0.997562 12.6046 -5.50013 10.7654C-5.97012 10.5726 -7.45531 11.2687 -6.80201 11.5368C-1.77306 13.5877 2.13731 19.2886 4.27579 24.0536C3.6789 26.4431 3.0961 28.8326 2.49921 31.2174C0.252627 28.5504 -2.31825 26.048 -5.50953 24.6086C-6.01712 24.3781 -7.49761 25.1072 -6.79732 25.4224C-3.18774 27.0546 -0.405366 30.0744 2.02451 33.1271C1.39942 35.6483 0.774324 38.1696 0.149229 40.6908C-1.31246 38.3812 -3.18304 36.2175 -5.67872 35.1074C-6.33672 34.8158 -7.56341 35.7612 -6.62342 36.1799C-3.81284 37.4311 -1.84825 40.3568 -0.410066 42.9674C-0.997561 45.3381 -1.58976 47.7088 -2.17255 50.0842C-3.05614 48.4238 -4.19824 46.9045 -5.39203 45.4369C-5.74922 44.9947 -7.31901 45.5733 -6.90541 46.0813C-5.25103 48.1086 -3.68124 50.2159 -2.82585 52.7183C-3.40394 55.0655 -3.99614 57.408 -4.56953 59.7505C-4.82333 59.2519 -5.08653 58.758 -5.39203 58.2782C-5.65992 57.8548 -7.24381 58.3675 -6.91011 58.8991C-6.21922 59.9856 -5.70222 61.1381 -5.19933 62.314C-5.58942 63.9039 -5.97952 65.489 -6.36022 67.0742C-6.56702 67.9303 -6.91481 68.8758 -6.97121 69.7601C-7.01821 70.508 -5.37323 70.221 -5.33563 69.5907C-5.18523 67.2671 -4.24524 64.7788 -3.66714 62.5116C-0.0998688 62.2858 3.6507 63.1513 6.99707 64.2237C10.5314 65.3573 14.3008 66.9895 16.7119 69.9247C17.0362 73.7536 17.3652 77.5824 17.6895 81.4113C11.6359 75.461 1.68612 70.8937 -6.43542 73.8853C-7.52581 74.2851 -6.49182 74.4215 -5.88552 74.2004C-1.69316 72.6576 3.3875 74.2239 7.27437 75.9737C11.3069 77.7894 15.0575 80.4047 17.8916 83.8149C18.0279 85.4189 18.1642 87.0276 18.3005 88.6316C18.653 92.7803 19.0055 96.929 19.3627 101.078C19.0243 101.562 18.6765 102.042 18.3428 102.531C8.31776 117.118 -0.659164 132.635 -6.93361 149.23C-7.25791 150.086 -5.62702 150.044 -5.38263 149.395C1.03282 132.424 10.0802 116.436 20.5612 101.435C20.8291 101.299 21.0312 101.097 21.0124 100.843C21.0124 100.824 21.0077 100.805 21.0077 100.791C29.4629 88.7633 38.8346 77.3708 48.5259 66.6227C73.7647 38.6352 103.144 13.6394 136.02 -4.92166C153.081 -14.555 171.251 -22.4526 190.366 -26.9353C191.381 -27.1752 191.09 -28.2429 190.084 -28.0078ZM18.0702 66.2464C17.76 62.6292 17.4545 59.012 17.1443 55.3995C19.0619 51.5283 22.7278 48.786 26.3985 46.6881C29.5099 44.9101 33.0913 43.2308 36.7055 42.7557C38.6842 46.1001 40.6629 49.4492 42.6416 52.7936C37.7442 52.3467 32.7435 54.2235 28.6122 56.7306C24.4621 59.2472 20.6082 62.7138 18.1313 66.9566C18.1078 66.7214 18.089 66.4815 18.0702 66.2464ZM23.9686 -12.8475C25.1436 -11.9726 26.3468 -11.1259 27.597 -10.3686C28.1187 -10.0535 28.7814 -9.80887 29.2702 -9.45609C28.0717 -8.9669 26.8732 -8.473 25.6794 -7.98381C22.6009 -9.53605 18.9867 -12.0338 17.3699 -15.0112C17.7036 -15.8861 18.0326 -16.761 18.3663 -17.6359C20.0207 -15.825 22.0464 -14.2775 23.9686 -12.8475ZM41.6828 -3.45408C40.4279 -1.81247 40.1412 0.553532 40.0566 2.53382C39.9485 5.05504 40.2117 7.64211 40.9261 10.0787C38.8534 9.21317 36.776 8.34297 34.7034 7.47747C32.9879 4.67873 32.1936 -0.090889 34.3838 -2.87082C36.8183 -3.06837 39.2529 -3.26123 41.6828 -3.45408ZM49.621 -4.08909C49.6116 -4.04675 49.6022 -4.01383 49.5928 -3.96209C49.4753 -3.37882 49.0899 -2.77204 48.9113 -2.19347C47.4167 2.65611 47.7457 8.44645 48.9724 13.4419C46.9703 12.6046 44.9681 11.7673 42.9659 10.93C42.0118 8.3853 41.6264 5.60067 41.6781 2.8913C41.7157 0.816938 41.9037 -1.9771 43.4124 -3.59049C45.4804 -3.75983 47.5483 -3.92446 49.621 -4.08909ZM58.2079 -4.77584C59.0962 -4.8464 59.9845 -4.91695 60.8727 -4.98751C60.7881 -4.52654 60.0972 -3.55286 59.9421 -3.21419C57.2397 2.64671 55.2375 10.0128 56.4219 16.5557C54.5889 15.789 52.7559 15.0223 50.9229 14.2556C49.3531 8.70045 48.5494 1.04272 51.4211 -4.23491C53.6818 -4.41365 55.9425 -4.5971 58.2079 -4.77584ZM37.1144 40.2486C35.9582 38.2919 34.8021 36.3351 33.6459 34.383C34.5671 30.3002 37.293 26.476 39.8827 23.2962C42.4724 20.1118 45.8658 16.3629 49.997 15.2622C52.065 16.1277 54.1283 16.9932 56.1963 17.854C47.4403 22.4261 40.1553 30.7941 37.1144 40.2486ZM13.3514 10.8783C13.2997 10.2715 13.248 9.66943 13.1963 9.06264C13.7321 8.39001 14.987 7.40692 15.8565 7.48689C16.8858 9.23198 17.9198 10.9724 18.9491 12.7175C17.0973 12.8915 15.1844 13.5312 13.671 14.6178C13.5629 13.3713 13.4595 12.1248 13.3514 10.8783ZM19.2076 -4.13142C19.2358 -3.87742 19.264 -3.62812 19.4285 -3.34119C19.5554 -3.12012 19.7011 -2.92256 19.8609 -2.725C18.1736 -2.58859 16.491 -2.45688 14.8037 -2.32047C16.2701 -2.92726 17.7412 -3.52934 19.2076 -4.13142ZM24.8099 -6.43157C24.8992 -5.96119 24.8804 -5.42026 25.0496 -4.95458C25.2752 -4.32898 25.6277 -3.81627 25.9661 -3.25182C25.9755 -3.23771 25.9755 -3.233 25.9849 -3.21889C24.5749 -3.106 23.1649 -2.99311 21.755 -2.88022C21.2615 -3.39764 20.7398 -4.05616 20.7492 -4.76173C22.0981 -5.31677 23.4516 -5.87182 24.8099 -6.43157ZM19.4567 2.48678C18.2159 3.04653 17.0785 4.02491 16.4111 5.21967C15.363 3.44635 14.3149 1.67303 13.2668 -0.105C15.3254 0.760494 17.3934 1.62599 19.4567 2.48678ZM13.8778 -1.2339C15.9223 -1.39853 17.9668 -1.55846 20.0113 -1.72309C19.5319 -0.984602 19.2922 0.0878544 19.3439 1.05213C17.5203 0.290117 15.7014 -0.471891 13.8778 -1.2339ZM18.3945 4.43414C18.8269 3.86968 19.5131 3.07475 20.2369 2.81604C21.9195 3.5169 23.5973 4.22247 25.2799 4.92333C22.8594 6.18864 21.1816 8.78983 20.0254 11.3346C19.1559 9.86699 18.2911 8.39941 17.4216 6.93184C17.4216 6.01931 17.8493 5.14911 18.3945 4.43414ZM25.4162 3.59216C24.0626 3.02771 22.709 2.46326 21.3602 1.8941C21.3226 1.87999 21.2803 1.86118 21.2427 1.84706C20.8385 0.87809 20.8667 -0.904638 21.4683 -1.84069C23.0474 -1.96769 24.6266 -2.09469 26.2058 -2.21699C26.1541 -2.01002 26.0601 -1.77484 25.9426 -1.39853C25.4538 0.158413 25.2799 1.92233 25.4162 3.59216ZM15.5087 6.89891C14.6721 7.07766 13.8261 7.43985 13.0976 7.91963C12.9284 5.93464 12.7592 3.94965 12.59 1.96466C13.5629 3.61098 14.5358 5.2573 15.5087 6.89891ZM25.9896 5.22437C28.1328 6.12279 30.276 7.01651 32.4192 7.91492C28.2268 9.30254 24.7864 12.6845 23.2683 16.8333C22.4741 15.488 21.6798 14.1474 20.8855 12.8021C21.8349 10.3233 23.4939 6.63079 25.9896 5.22437ZM33.6083 8.40882C34.412 8.74749 35.2156 9.08146 36.024 9.42013C37.4857 10.0316 38.9474 10.6431 40.4091 11.2546C34.6 12.9574 29.6885 18.5784 27.6863 24.2982C26.5677 22.4072 25.4491 20.5116 24.3305 18.6207C25.2987 13.884 28.8754 9.6271 33.6083 8.40882ZM48.3943 14.5896C44.5921 16.0666 41.4055 19.3874 38.8863 22.4072C36.4235 25.3565 33.895 28.8326 32.579 32.5674C31.3006 30.4036 30.0175 28.2399 28.7391 26.0715C30.1115 20.1118 35.4835 12.8915 41.8144 11.8379C44.0046 12.7551 46.1995 13.6723 48.3943 14.5896ZM31.5967 34.1149C25.7452 34.7923 19.9079 37.8873 16.0304 42.3418C15.739 38.941 15.4523 35.5354 15.1609 32.1346C18.2629 28.9972 22.7513 26.65 27.2398 26.7441C28.6921 29.2042 30.1444 31.6595 31.5967 34.1149ZM32.3816 6.5038C30.652 5.77942 28.9177 5.05504 27.1881 4.33066C26.8356 2.37389 26.7886 -0.462484 27.7709 -2.34399C29.43 -2.4757 31.0891 -2.6074 32.7482 -2.74381C32.6166 -2.29225 32.1278 -1.74661 31.9586 -1.28564C31.075 1.16502 31.3664 4.06254 32.3816 6.5038ZM28.5041 -3.42116C28.2926 -3.40234 28.0811 -3.38823 27.8743 -3.36941C27.0001 -4.39483 26.3515 -5.726 26.3938 -7.07598C27.5171 -7.53695 28.6451 -7.99792 29.7684 -8.45889C29.9893 -6.85961 30.7695 -5.62722 31.8411 -4.42306C31.9915 -4.25372 32.3205 -3.98561 32.5649 -3.74101C31.2066 -3.63753 29.853 -3.52934 28.5041 -3.42116ZM19.7528 -10.3592C20.5706 -9.71009 21.4213 -9.0986 22.2955 -8.52945C22.8359 -8.17666 23.6772 -7.8474 24.2318 -7.38643C22.8923 -6.83609 21.5576 -6.29045 20.2181 -5.74011C19.4332 -6.27164 18.653 -6.81257 17.9198 -7.40995C17.0315 -8.12492 16.0116 -8.92927 15.4523 -9.94528C15.8659 -11.0319 16.2795 -12.1184 16.6884 -13.205C17.5814 -12.1325 18.6859 -11.2012 19.7528 -10.3592ZM17.4216 -6.04115C17.7694 -5.78245 18.3428 -5.4767 18.7329 -5.13333C16.7166 -4.30546 14.7003 -3.4776 12.6793 -2.64974C13.3843 -4.50773 14.094 -6.37042 14.799 -8.22841C15.5886 -7.39584 16.5568 -6.68087 17.4216 -6.04115ZM13.765 15.7232C15.0528 14.1145 17.2806 13.2631 19.3063 13.3243C20.251 14.9235 21.2004 16.5275 22.1451 18.1268C19.2922 18.0515 16.4534 19.4674 14.2397 21.3066C14.0799 19.4486 13.9248 17.5859 13.765 15.7232ZM14.3525 22.6236C16.5239 20.4458 19.6071 18.4467 22.7795 19.1993C23.0944 19.7308 23.4093 20.267 23.7242 20.7985C24.7065 22.4637 25.6935 24.1288 26.6758 25.7892C22.4506 26.0103 18.2441 27.9389 15.0387 30.7047C14.8131 28.0141 14.5828 25.3189 14.3525 22.6236ZM32.2265 35.1827C33.5566 37.4311 34.8867 39.6842 36.2167 41.9326C32.5884 42.5394 29.0305 44.1669 25.8674 45.9167C22.5728 47.7417 19.217 50.0936 16.9563 53.1981C16.7025 50.2253 16.4487 47.2525 16.1949 44.2798C19.8327 39.2608 26.0131 35.686 32.2265 35.1827ZM38.1719 42.0361C40.6958 32.1111 48.1499 22.9341 57.2867 18.3103C59.9515 19.425 62.6211 20.5398 65.286 21.6546C59.162 23.5032 54.1001 28.461 50.4153 33.4846C46.8434 38.353 43.6991 44.3738 43.2009 50.5452C41.5277 47.7135 39.8498 44.8724 38.1719 42.0361ZM61.3333 18.6113C60.3087 18.1833 59.2889 17.7552 58.2643 17.3272C57.2585 13.2396 57.7943 8.91212 58.7531 4.86218C59.5661 1.43313 60.7223 -2.03825 62.4707 -5.11922C66.6302 -5.45318 70.7897 -5.78245 74.9491 -6.11641C66.8887 -0.895231 63.4577 11.3016 65.6573 20.4175C64.2191 19.8155 62.7762 19.2134 61.3333 18.6113ZM62.3156 -6.12112C59.5567 -7.3488 57.1175 -9.2209 55.0119 -11.3705C53.4374 -12.9745 51.642 -14.9548 51.0733 -17.2032C54.6829 -18.6849 58.2925 -20.1619 61.902 -21.6436C63.0253 -15.1429 69.6288 -10.4204 75.0807 -7.14184C70.8226 -6.79846 66.5691 -6.45979 62.3156 -6.12112ZM54.8192 -9.46079C56.1305 -8.28015 57.5452 -7.20299 59.0633 -6.30457C59.2466 -6.19638 59.5379 -6.06467 59.834 -5.92356C56.9953 -5.69778 54.1565 -5.472 51.3177 -5.24151C48.2909 -7.17947 45.0198 -10.7543 44.0046 -14.3057C45.8329 -15.0583 47.6658 -15.8062 49.4941 -16.5588C50.2837 -13.7694 52.7794 -11.3 54.8192 -9.46079ZM46.4063 -7.51343C47.2193 -6.62913 48.0982 -5.82008 49.0288 -5.05807C47.1818 -4.91225 45.3347 -4.76173 43.4923 -4.61591C41.0577 -6.03645 38.3505 -9.01864 38.374 -11.9914C39.7276 -12.5465 41.0812 -13.1015 42.4348 -13.6566C43.1586 -11.3376 44.7942 -9.26794 46.4063 -7.51343ZM41.2175 -4.43717C38.9756 -4.25843 36.7337 -4.07968 34.4919 -3.90094C33.1101 -5.16155 31.0562 -7.23591 31.5168 -9.18327C33.2605 -9.89824 35.0088 -10.6132 36.7525 -11.3282C36.9358 -8.62823 38.9897 -6.04115 41.2175 -4.43717ZM30.887 -10.1146C28.6122 -11.0271 26.5348 -12.6499 24.6266 -14.1269C22.6432 -15.6557 20.5471 -17.2879 18.9961 -19.2823C19.1606 -19.715 19.3251 -20.1478 19.4896 -20.5805C21.6093 -18.271 24.7018 -16.5729 27.3432 -15.1618C29.712 -13.8964 32.532 -12.4195 35.3331 -11.9397C33.848 -11.3282 32.3675 -10.7214 30.887 -10.1146ZM17.3605 -19.2117C15.4194 -18.2004 13.0036 -17.9605 10.8698 -17.8288C8.59976 -17.6877 6.17458 -17.6877 3.9797 -18.3697C3.6977 -18.9389 3.411 -19.508 3.129 -20.0725C5.41319 -19.5551 7.96527 -19.6539 10.1601 -19.7479C12.731 -19.8608 15.5698 -20.0866 18.0561 -21.0321C17.8258 -20.43 17.5955 -19.8232 17.3605 -19.2117ZM10.8181 -16.9727C12.8438 -17.1185 14.9964 -17.3913 16.9422 -18.111C16.5286 -17.015 16.1103 -15.9191 15.6967 -14.8231C12.6887 -13.6048 9.02276 -13.4778 5.93958 -14.4515C5.49309 -15.3452 5.04659 -16.2436 4.60009 -17.1373C6.64458 -16.7893 8.77366 -16.8222 10.8181 -16.9727ZM15.4476 -14.1693C14.893 -12.7064 14.3384 -11.2435 13.7791 -9.78065C12.2281 -9.06568 9.66195 -8.8446 8.27076 -9.78535C7.66917 -10.9895 7.06757 -12.189 6.46598 -13.3931C9.42225 -12.8804 12.6135 -13.2097 15.4476 -14.1693ZM10.7194 -8.54356C11.6406 -8.60471 12.59 -8.75523 13.4924 -9.02334C12.7968 -7.18887 12.1012 -5.3544 11.4009 -3.51993C10.5643 -5.19918 9.72305 -6.87372 8.88646 -8.55297C9.51155 -8.49652 10.1413 -8.50593 10.7194 -8.54356ZM11.4902 8.59227C10.8651 8.60168 10.2306 8.73338 9.63375 8.96387C9.78885 8.34297 9.93925 7.72678 10.0943 7.10588C10.4092 5.84056 10.7241 4.57996 11.039 3.31464C11.1941 5.07385 11.3398 6.83306 11.4902 8.59227ZM9.40346 9.89992C10.0661 9.42013 10.7711 9.21317 11.5701 9.5001C11.7346 11.4098 11.8944 13.3196 12.0589 15.2246C10.71 15.0552 9.29535 15.2105 7.98407 15.6009C8.45406 13.7006 8.92876 11.8002 9.40346 9.89992ZM7.82897 16.2124C9.16846 15.6997 10.804 15.6761 12.1341 16.1512C12.2939 18.0421 12.4584 19.9284 12.6182 21.8193C10.4421 21.3771 8.21436 21.871 6.18398 22.8259C6.73388 20.6198 7.27907 18.4184 7.82897 16.2124ZM5.90198 23.9501C8.01227 22.7271 10.3575 22.0592 12.7169 23.0093C12.9519 25.7892 13.1916 28.5645 13.4266 31.3444C10.2071 30.7047 7.01117 31.1751 3.8669 32.1252C4.54369 29.4017 5.22519 26.6736 5.90198 23.9501ZM3.6131 33.1506C6.88897 32.1064 10.146 31.6031 13.53 32.5345C13.5488 32.779 13.5723 33.0236 13.5911 33.2635C13.859 36.4245 14.1316 39.5901 14.3995 42.751C10.5784 40.6108 5.56828 40.258 1.47462 41.735C2.18901 38.8751 2.90341 36.0105 3.6131 33.1506ZM0.614525 45.2064C0.788424 44.5008 0.967022 43.7906 1.14092 43.085C5.32859 41.1941 10.8745 41.8526 14.5593 44.5949C14.8272 47.7323 15.0951 50.8744 15.363 54.0119C10.6207 51.0908 4.2805 49.5903 -0.959962 51.5847C-0.433566 49.4586 0.0834298 47.3325 0.614525 45.2064ZM28.5887 57.8031C32.8422 54.9996 38.1249 52.8312 43.2855 53.8754C43.7273 54.6233 44.1738 55.3759 44.6156 56.1238C45.7859 58.0994 46.9515 60.0797 48.1217 62.0553C35.5916 61.7166 25.3645 70.5879 19.3392 81.1009C19.0102 77.2485 18.6812 73.3914 18.3522 69.539C20.3027 64.6518 24.2459 60.6677 28.5887 57.8031ZM44.813 53.264C44.3101 46.5611 47.5248 39.8018 51.2519 34.4348C54.8709 29.2277 60.0314 23.7149 66.414 22.125C69.3233 23.3433 72.2325 24.5569 75.1371 25.7751C66.9968 28.0235 59.6367 32.5062 54.7487 39.5384C50.6973 45.3663 48.6387 52.3561 48.446 59.4118C47.2335 57.3609 46.0209 55.3148 44.813 53.264ZM67.6219 21.2407C64.8066 12.1295 68.1671 -1.41265 76.9607 -6.27634C80.246 -6.53975 83.5313 -6.80317 86.8165 -7.06187C86.6802 -6.91135 86.464 -6.76083 86.1679 -6.50212C85.2608 -5.71189 84.4055 -4.86521 83.6018 -3.97149C76.8291 3.55453 73.3934 14.4673 75.3627 24.4769C72.7824 23.3997 70.2022 22.3226 67.6219 21.2407ZM69.8732 -24.9127C71.2503 -20.4535 75.2405 -16.8975 78.6903 -14.0187C80.7865 -12.2642 82.9814 -10.632 85.2044 -9.03745C85.5146 -8.81638 86.3136 -8.42126 86.6661 -8.06377C83.5595 -7.81447 80.4575 -7.56988 77.3508 -7.32058C71.8284 -10.5709 64.5387 -15.4675 63.4906 -22.2927C64.6938 -22.7866 65.897 -23.2805 67.1002 -23.7744C68.0214 -24.1554 68.9473 -24.5317 69.8732 -24.9127ZM30.9669 -17.1844C33.989 -15.7121 37.2413 -14.5079 40.5924 -14.094C39.5067 -13.6471 38.4257 -13.205 37.34 -12.7581C34.1676 -12.904 30.8494 -14.7525 28.161 -16.2248C25.3363 -17.7724 22.0652 -19.6068 20.1335 -22.2786C20.3967 -22.9653 20.6552 -23.6568 20.9184 -24.3435C23.6913 -21.2908 27.2915 -18.9765 30.9669 -17.1844ZM19.4191 -24.6257C19.1183 -23.8355 18.8175 -23.0406 18.5167 -22.2503C16.1009 -20.9427 12.8814 -20.7969 10.2118 -20.7075C7.73027 -20.6228 4.68939 -20.5005 2.37701 -21.5871C2.01981 -22.3068 1.66262 -23.0218 1.30072 -23.7414C6.92187 -21.8505 14.0564 -22.2645 19.4191 -24.6257ZM4.0126 -3.99031C5.29569 -5.09099 6.44718 -6.44568 7.35897 -7.91325C7.94177 -6.74202 8.52926 -5.57548 9.11206 -4.40424C9.46925 -3.69397 9.82175 -2.979 10.1789 -2.26873C7.58457 -2.46159 4.99019 -2.64974 2.39581 -2.84259C2.97391 -3.17656 3.5238 -3.57167 4.0126 -3.99031ZM5.25339 2.33626C4.3181 1.05683 3.2183 -0.504818 1.89761 -1.62902C4.77399 -1.41735 7.65037 -1.20568 10.5267 -0.994011C9.82645 1.81414 9.12616 4.62229 8.42586 7.42573C7.54227 5.62889 6.40958 3.92613 5.25339 2.33626ZM7.23677 63.1419C3.8246 62.1447 0.135129 61.4203 -3.44624 61.6696C-2.71305 58.6639 -1.96575 55.6629 -1.22316 52.6572C3.9609 50.0419 11.1753 52.5255 15.5134 55.7758C15.8471 59.7222 16.1855 63.664 16.5239 67.6104C13.8872 65.4044 10.4327 64.0779 7.23677 63.1419ZM20.8573 98.9658C20.4155 93.7822 19.9737 88.5987 19.5319 83.4198C24.965 72.4788 35.2767 61.4956 48.5212 62.7467C48.7374 63.1136 48.9583 63.4852 49.1745 63.8521C39.0038 74.9624 29.524 86.6936 20.8573 98.9658ZM50.3307 62.6056C50.2555 62.4786 50.1803 62.3516 50.1051 62.2246C49.7103 54.8115 51.3647 47.3043 55.2422 40.9354C59.8763 33.3247 67.3023 28.3152 75.8233 26.0621C75.8797 26.0856 75.9361 26.1091 75.9925 26.1326C78.8924 27.3462 81.797 28.5598 84.6969 29.7733C72.6039 39.9805 61.0983 50.9544 50.3307 62.6056ZM94.6514 21.6452C91.6716 23.9971 88.7294 26.4054 85.8107 28.8467C82.9579 27.6519 80.105 26.4619 77.2521 25.2671C74.4227 13.6394 79.1274 0.421824 88.3064 -7.17947C102.966 -8.3507 117.62 -9.52194 132.279 -10.6932C136.946 -11.0648 141.613 -11.4364 146.28 -11.8127C127.894 -2.58859 110.622 9.04383 94.6514 21.6452Z" fill="#040000"/>
</svg>
