<svg width="58" height="36" viewBox="0 0 58 36" fill="none" xmlns="http://www.w3.org/2000/svg">
<path d="M52.2377 26.6496C52.8859 26.5174 54.3238 26.0383 54.8982 25.7738C55.4725 25.5118 56.9474 25.6864 57.9545 25.5542C57.1279 25.1599 55.8684 25.1175 55.2941 24.9852C54.7731 24.8655 53.4008 25.0002 52.131 25.2522C52.771 25.09 53.5874 24.7632 53.9997 24.5486C54.5023 24.2866 56.2643 23.7176 57.5956 23.543C56.9125 23.3234 56.3012 23.3683 55.6551 23.4107C55.0069 23.4556 53.0664 23.5854 52.0244 23.4556C52.6992 23.1537 53.7146 23.5005 55.3679 22.6671C49.7598 23.2785 46.2706 21.0052 41.2286 21.7688C40.2133 21.9235 36.8923 22.4425 35.1282 23.7101C34.4246 23.5979 33.0544 22.6921 32.759 22.4625C32.7672 22.7669 32.9129 23.0714 32.9744 23.3009C32.7529 23.2261 32.5949 23.1637 32.4493 23.0264C32.4534 23.2909 32.5847 23.7925 32.7426 24.1518L26.9929 24.067C27.0565 24.0395 27.1242 24.0121 27.196 23.9846C28.7468 23.2785 29.6924 22.6821 29.9837 21.6191C30.2401 20.6784 30.2524 19.4831 29.4667 18.455C28.6216 17.3496 27.8545 16.6709 26.1273 15.7152C24.3653 14.7395 23.1981 13.7464 21.1366 12.7658C22.0556 12.5636 25.2596 12.7832 27.034 13.1351C29.3519 13.5942 35.879 16.5461 39.8687 15.7152C43.4871 14.9616 45.2983 14.49 43.7886 12.5212C43.0399 11.5456 44.1435 11.0415 45.4788 11.3409C47.6367 11.8225 49.3311 11.1987 50.6931 10.2031C51.4131 9.67907 52.7423 8.80322 52.3833 6.96668C51.1587 7.72276 47.5567 8.53622 45.6593 8.67347C43.7619 8.81071 35.3764 5.87374 29.6965 6.74959C26.6504 7.21871 23.4217 8.72836 21.2925 8.8681C21.5981 8.65101 21.8525 8.4988 21.914 8.60609C21.8935 8.16942 20.8638 8.79823 20.4576 8.58364C19.99 8.3366 19.8833 8.55619 19.4689 8.40897C19.0546 8.26174 19.1284 8.17441 19.0915 7.88495C19.0546 7.5955 18.6341 7.68283 17.9059 7.46824C17.8874 7.30604 17.7541 7.09394 17.5715 6.88683C18.8351 6.94173 20.0638 6.88683 20.9253 6.7471C18.6054 6.42021 17.6659 5.90618 16.6546 5.45453C16.5336 5.40213 16.4064 5.35971 16.2772 5.31729C16.7921 4.36907 17.0321 3.97981 17.4731 3.3435C18.0474 2.51257 19.2433 1.67415 20.0987 1.33229C21.5181 0.763363 23.1366 0.633608 23.9058 0.890624C24.3078 1.02537 24.8801 1.19256 25.153 1.40715C25.4258 1.62175 25.7089 1.96111 25.836 2.40278C25.9612 1.9112 25.7786 1.71158 25.5653 1.19006C25.4114 0.808279 25.0627 1.10772 24.7037 0.621131C24.3078 0.0846416 21.1592 -0.0176657 20.1171 0.00229674C18.9623 0.0247544 17.2721 0.461432 16.0844 1.05282C14.9808 1.60178 14.1788 2.11332 13.2085 3.05405C12.466 3.7727 12.0147 4.67599 11.8239 5.35971C10.7942 5.62171 9.38089 6.23805 8.36141 6.88683C8.82294 6.70717 9.98806 6.57492 11.305 6.52252C11.065 6.8494 10.8537 7.30854 10.8168 7.86249C10.7839 8.34658 10.9357 8.88307 11.1798 9.13011C11.0568 8.78825 11.0527 8.4938 11.1573 8.23429C11.225 8.52624 11.3706 8.75581 11.5593 8.98538C11.5634 8.656 11.5696 8.62356 11.6332 8.4439C11.6701 8.52624 11.7214 8.6036 11.785 8.67097C11.7891 8.79075 11.8014 8.90303 11.8383 8.99786C11.9306 9.2424 11.9921 9.40459 12.0516 9.55181C12.1132 9.70153 12.1234 9.96354 12.0844 10.0858C12.0455 10.2081 12.0147 10.3428 11.9655 10.4451C11.9162 10.5474 11.9634 10.5874 12.0352 10.6048C12.1091 10.6223 12.2075 10.6472 12.2629 10.6672C12.3183 10.6847 12.3655 10.7471 12.3696 10.8344C12.3737 10.9217 12.3655 11.1313 12.4926 11.1887C12.509 11.3734 12.5152 11.5056 12.5972 11.5206C12.6793 11.5381 12.7388 11.6853 12.827 11.8225C12.9152 11.9598 13.0506 12.0047 13.186 11.9847C13.3193 11.9648 13.4772 11.8774 13.6147 11.7252C13.7521 11.573 13.8506 11.5555 14.0106 11.5356C14.1726 11.5131 14.4208 11.6279 14.6116 11.8799C14.8023 12.1295 15.0095 12.5562 15.0875 12.9654C15.1264 13.17 15.1429 13.2099 15.1511 13.2049C15.1511 13.2424 15.1511 13.2998 15.1552 13.3796C15.1736 14.0084 14.9029 14.6073 14.5706 15.7027C14.3306 16.5087 12.9029 17.8362 10.7819 19.2136C9.78703 19.8599 8.60551 20.7607 7.06707 21.8437C7.05476 21.8337 7.05271 21.8262 7.06707 21.8162C7.05066 21.8387 7.03835 21.8536 7.024 21.8736C6.75938 22.0608 6.48657 22.2504 6.19939 22.4475C6.25478 22.4575 6.37375 22.4775 6.52349 22.5049C6.44144 22.5948 6.36554 22.6721 6.2876 22.7345C6.07427 22.9067 5.65171 23.1687 5.41171 23.3783C5.30299 23.4731 5.16761 23.5979 5.03633 23.7401L0.209735 23.6752C0.0989669 23.6927 0.00871183 23.8424 0.000506821 24.0994C-0.00974944 24.4063 0.137941 24.5835 0.236401 24.5835L4.50506 24.6459C4.4189 24.8904 4.37788 25.0925 4.44967 25.2323C4.54813 25.4294 5.00146 25.5642 5.25992 25.5841C5.52043 25.6041 5.90401 25.5617 6.26503 25.5068C6.68349 25.4444 6.92143 25.3421 7.34399 25.0526C7.55732 24.9079 7.71117 24.8031 7.83834 24.6958L15.7869 24.8131C15.6987 25.1699 15.6557 25.5667 15.6741 26.0433C15.7275 27.5354 17.7254 28.7856 18.8884 29.5791C20.0515 30.3726 21.9653 33.1474 23.5981 34.0232C27.0114 35.8498 31.8524 36.3763 37.2225 35.2958C32.9088 35.5004 27.7724 34.5996 27.276 33.866C27.996 34.2478 28.8145 33.9459 30.1047 34.0108C31.4113 34.0781 33.6041 33.9359 35.0174 33.2522C36.3569 32.6059 39.9692 31.6677 41.2491 31.473C40.1804 30.9266 36.3918 31.5778 35.6164 31.765C33.9877 32.1592 32.3118 32.2241 31.3252 31.6203C33.8339 31.236 35.2718 30.6945 36.7179 29.9284C38.3815 29.0476 39.3435 28.4837 40.4122 28.2117C43.2471 28.9802 47.0029 28.4088 48.0203 28.4163C49.2449 28.4263 54.3238 27.6028 55.331 27.1312C54.6274 27.0189 51.2818 27.2784 50.2972 26.6945C51.8049 27.0563 51.5916 26.7794 52.2377 26.6496ZM18.55 9.85125C18.3859 9.8787 18.2772 9.86123 18.2526 9.77639C18.3038 9.78388 18.4084 9.80883 18.55 9.85125ZM8.36962 23.795C8.39423 23.6528 8.40244 23.5155 8.41885 23.3808C8.43936 23.2161 8.48654 23.0489 8.55218 22.8817C10.3101 23.2061 12.4085 23.5854 12.5275 23.5629C12.7224 23.5255 13.588 23.6103 14.0188 23.281C14.5644 22.8667 14.107 21.5817 14.827 20.9603C15.9428 19.9971 16.5582 19.2411 17.2721 17.3621C18.0433 18.4925 20.5089 19.0514 21.7951 19.4307C22.0535 20.1319 22.072 19.7551 22.3161 20.4538C21.1879 20.6559 17.9941 21.8012 17.0423 22.7994C16.6731 23.1861 16.3777 23.538 16.1562 23.9073L8.36962 23.795ZM35.0338 28.2741C33.5836 28.2142 31.4708 27.5928 30.1416 26.9615C28.9211 26.3826 27.6637 25.5467 26.9335 25.0227C26.9088 25.0052 26.8965 24.9902 26.874 24.9753L32.8841 25.0626C32.7282 25.1973 32.5765 25.3645 32.5108 25.5617C32.7713 25.5217 32.9211 25.5642 33.3723 25.5667C33.1918 25.7788 33.1221 25.911 33.0585 26.3477C33.7477 25.8012 34.8513 25.6116 35.2677 25.3471C35.4318 25.5991 35.9323 26.0732 36.2708 26.3726C36.5559 26.6247 37.9815 27.3134 39.2287 27.8049C37.7148 27.9247 36.2379 28.324 35.0338 28.2741Z" fill="#040000"/>
</svg>
